<svg width="292" height="48" viewBox="0 0 292 48" fill="none" xmlns="http://www.w3.org/2000/svg">
<path d="M291.46 8.34625C291.651 7.54019 291.152 6.73174 290.346 6.54051L277.211 3.4243C276.405 3.23307 275.596 3.73149 275.405 4.53754C275.214 5.3436 275.712 6.15205 276.518 6.34328L288.194 9.11325L285.424 20.7892C285.233 21.5952 285.731 22.4037 286.538 22.5949C287.344 22.7861 288.152 22.2877 288.343 21.4817L291.46 8.34625ZM0.515368 3.13159C26.5038 25.7449 73.2282 43.1894 126.266 47.0585C179.345 50.9307 238.966 41.2249 290.787 9.27685L289.213 6.72315C238.034 38.2751 179.071 47.9027 126.484 44.0665C73.8552 40.2272 27.8296 22.9218 2.48463 0.868408L0.515368 3.13159Z" fill="white"/>
</svg>
