<?xml version="1.0" encoding="utf-8"?>
<!-- Generator: Adobe Illustrator 21.1.0, SVG Export Plug-In . SVG Version: 6.00 Build 0)  -->
<svg version="1.1" id="Capa_1" xmlns="http://www.w3.org/2000/svg" xmlns:xlink="http://www.w3.org/1999/xlink" x="0px" y="0px"
	 viewBox="0 0 512 512" style="enable-background:new 0 0 512 512;" xml:space="preserve">
<style type="text/css">
	.st0{fill:#2087D3;}
</style>
<g>
	<g>
		<path class="st0" d="M496,80H288V32c0-4.8-2.1-9.3-5.8-12.3c-3.6-3-8.5-4.4-13.2-3.4l-256,48C5.5,65.7,0,72.3,0,80v352
			c0,7.7,5.5,14.3,13.1,15.7l256,48c1,0.2,2,0.3,2.9,0.3c3.7,0,7.3-1.3,10.2-3.7c3.7-3,5.8-7.6,5.8-12.3v-48h208c8.8,0,16-7.2,16-16
			V96C512,87.2,504.8,80,496,80z M223.9,193.8l-16,144c-0.8,7.3-6.6,13.2-13.9,14.1c-0.7,0.1-1.3,0.1-2,0.1c-6.6,0-12.6-4.1-15-10.4
			l-33-88.1l-33,88.1c-2.6,6.8-9.3,11-16.7,10.3c-7.3-0.8-13.1-6.4-14.1-13.7l-16-112c-1.2-8.7,4.8-16.8,13.6-18.1
			c8.8-1.3,16.9,4.8,18.1,13.6l7.1,50l26-69.4c4.7-12.5,25.3-12.5,30,0l24.5,65.3l8.6-77.5c1-8.8,9.1-15,17.7-14.1
			C218.6,177.1,224.9,185,223.9,193.8z M480,400H288v-32h144c8.8,0,16-7.2,16-16s-7.2-16-16-16H288v-32h144c8.8,0,16-7.2,16-16
			s-7.2-16-16-16H288v-32h144c8.8,0,16-7.2,16-16s-7.2-16-16-16H288v-32h144c8.8,0,16-7.2,16-16s-7.2-16-16-16H288v-32h192V400z"/>
	</g>
</g>
</svg>
