<svg id="Layer_1" xmlns="http://www.w3.org/2000/svg" viewBox="0 0 629.3 372.3"><style>.st113,.st116{fill-rule:evenodd;clip-rule:evenodd;fill:#394595}.st116{fill:#b8589d}.st117{fill:#d16d8b}.st117,.st118,.st119,.st120,.st122,.st123{fill-rule:evenodd;clip-rule:evenodd}.st118{fill:#ffda82}.st119{fill:#fff}.st120{fill:#3c3c4c}.st122{fill:#5bc0e9}.st123{fill:#4cadd4}.st124{fill:#8ed3f5}.st124,.st125,.st127,.st129,.st130,.st132{fill-rule:evenodd;clip-rule:evenodd}.st125{fill:#4c4d5f}.st127{fill:#2f2f3b}.st129{fill:#f5e7ec}.st130{fill:#fef5fa}.st132{fill:#fdfbfd}.st135{fill:#fbe2c9}.st135,.st136,.st141,.st142,.st155,.st157{fill-rule:evenodd;clip-rule:evenodd}.st136{fill:#fecf69}.st141{fill:#a7a39b}.st142{fill:#b7b5b1}.st155{fill:#808181}.st157{fill:#e3b752}</style><linearGradient id="SVGID_2_" gradientUnits="userSpaceOnUse" x1="91.671" y1="179.16" x2="588.275" y2="179.16"><stop offset="0" stop-color="#51509e"/><stop offset=".435" stop-color="#6957a1"/><stop offset="1" stop-color="#835fa5"/></linearGradient><path d="M340,22.9c137.1,0,248.3,111.2,248.3,248.3 c0,22.2-2.9,43.8-8.4,64.3H100.1c-5.5-20.5-8.4-42-8.4-64.3C91.7,134,202.8,22.9,340,22.9z" fill-rule="evenodd" clip-rule="evenodd" fill="url(#SVGID_2_)"/><path class="st113" d="M174.6,216.3c0.3,0.7,0.4,1.4,0.4,2.1l-11.4,133c-0.2,2.8-2.3,5-5.1,5l-35.1-0.3l-0.1,0l-10-0.1l-5.4,0 l-0.1,0c-2.7-0.1-4.7-2.4-4.9-5.1L92.7,217.9l0-0.1v0l0-0.1v0l0-0.1v0v-0.1v0l0-0.1l0,0l0-0.1c0-0.2,0-0.3,0.1-0.5l-0.7,0h0l-0.1,0 h0l-0.1,0h0l-0.1,0h0l-0.1,0h0l-0.1,0h0c-0.1,0-0.2,0-0.3,0h0l-0.1,0h0l-0.2,0h0l-0.1,0h0l-0.1,0h0l-0.1,0l-0.2-0.1l-0.1,0h0 l-0.1,0h0l-0.1,0h0l-0.1,0v0l-0.1,0l-0.1,0h0l-0.1,0h0l-0.2-0.1l-0.1-0.1v0c-0.1-0.1-0.1-0.1-0.2-0.2v0l-0.1-0.1v0l-0.1-0.1v0 l-0.1-0.1l-0.1-0.1l-0.1-0.1h0l-0.1-0.1l-0.1-0.2l-0.1-0.2h0l0-0.1v0l0-0.1v0l0-0.1l-0.1-0.2l0-0.1v0l0-0.1l0-0.1v0l0-0.1v0l0-0.1 v0l0-0.1v0l0-0.1v0l0-0.1l0-0.1l0-0.1v0l0-0.1l0-0.1l0-0.1v0l0-0.1v0l0-0.1v0l0-0.1v0l0-0.1v0v-4.2v0l0-0.2v0l0-0.2v0l0-0.2v0 l0-0.2v0l0-0.2v0l0-0.2v0l0-0.2v0c0-0.1,0-0.3,0.1-0.4v0l0-0.2v0l0.1-0.2v0l0.1-0.2v0l0.1-0.4v0l0.1-0.2v0l0.1-0.2l0.1-0.2v0 l0.1-0.2l0.1-0.2v0l0.1-0.2v0l0.1-0.2l0.1-0.2v0l0.1-0.2h0l0.1-0.2l0.1-0.2h0l0.1-0.2l0.1-0.2v0l0.1-0.2l0.1-0.1h0l0.1-0.1l0.1-0.1 h0l0.1-0.1h0l0.1-0.1h0l0.1-0.1l0.1-0.1h0l0.1-0.1l0.2-0.1v0l0.2-0.1l0.2-0.1l0.2-0.1h0l0.2-0.1l0.2-0.1l0.2-0.1l0.2-0.1h0l0.2-0.1 l0.2-0.1l0.2-0.1h0l0.2-0.1h0l0.2-0.1h0l0.2-0.1h0l0.2-0.1l0.2-0.1h0l0.2-0.1h0l0.2-0.1l0.2,0l0.2,0l0.2,0v0l0.2,0l0.2,0v0l0.2,0 l0.2,0l0.2,0l0.2,0v0l0.2,0v0l23.5-0.1l19-0.1h0.1l31.3-0.2c4.5,0,8.1,3.6,8.1,8v4.2C178.3,214.5,176.7,216.2,174.6,216.3z"/><path class="st113" d="M340.3,1.7c4.4,0,8.8,0.1,13.1,0.3c-140.3,6.8-252,122.8-252,264.8c0,23.7,3.1,46.7,9,68.6H84.2 c-5.8-21.9-9-44.9-9-68.6C75.2,120.4,193.9,1.7,340.3,1.7z"/><linearGradient id="SVGID_4_" gradientUnits="userSpaceOnUse" x1="56.455" y1="163.254" x2="89.223" y2="163.254"><stop offset="0" stop-color="#38bcd9"/><stop offset=".168" stop-color="#49bcc9"/><stop offset=".737" stop-color="#6ebe94"/><stop offset="1" stop-color="#79be7c"/></linearGradient><path d="M61.4,133L61.4,133c-3.9,1.5-5.9,5.9-4.4,9.8l17.6,46.3 c1.5,3.9,5.9,5.9,9.8,4.4h0c3.9-1.5,5.9-5.9,4.4-9.8l-17.6-46.3C69.7,133.5,65.3,131.5,61.4,133z" fill-rule="evenodd" clip-rule="evenodd" fill="url(#SVGID_4_)"/><path d="M82.5,193.9c0.6-0.1,1.2-0.2,1.8-0.4h0c3.9-1.5,5.9-5.9,4.4-9.8L73,142.2c-0.6,0.1-1.2,0.2-1.8,0.4l0,0 c-3.9,1.5-5.9,5.9-4.4,9.8L82.5,193.9z" fill-rule="evenodd" clip-rule="evenodd" fill="#4db3c7"/><path class="st116" d="M91.4,191.1l45.2,0.3c2.8,0,5.2,2.3,5,5.1l-11.4,133c-0.2,2.8-2.3,5-5.1,5l-45.2-0.3c2.7-0.1,4.8-2.3,5-5 l11.4-133C96.5,193.5,94.2,191.2,91.4,191.1z"/><path class="st117" d="M64.5,190.9l36.9,0.3h0.1c2.7,0.1,5.1,2.4,4.9,5.1L95,329.4c-0.2,2.7-2.3,5-5,5l-0.1,0l-15.4-0.1l-0.1,0 c-2.7-0.1-4.7-2.4-4.9-5.1L59.4,196c-0.2-2.7,2.3-5,5-5L64.5,190.9z"/><path class="st116" d="M67.6,191l35.8,0.2l0.1,0c2.9,0.1,5.3,2.4,5.1,5.1l-0.4,4.6l-48.5,0.3l-0.4-5.2c-0.2-2.6,2.1-4.7,4.7-5 L67.6,191z"/><path class="st118" d="M100.7,224c15.1-0.1,27.3,12.1,27.3,27.2c0,15.1-12.2,27.4-27.3,27.5c-15.1,0.1-27.3-12.1-27.3-27.2 C73.4,236.4,85.6,224.1,100.7,224z"/><path class="st117" d="M63,178.7l73.9-0.4c4.5,0,8.1,3.6,8.1,8v4.2c0,2.1-1.7,3.9-3.9,3.9l-82.4,0.4c-2.1,0-3.9-1.7-3.9-3.8v-4.2 C54.9,182.4,58.5,178.7,63,178.7z"/><path class="st119" d="M100.7,234.4c9.3,0,16.9,7.5,16.9,16.8c0,9.3-7.6,16.9-16.9,17c-9.3,0-16.9-7.5-16.9-16.8 C83.8,242.1,91.4,234.5,100.7,234.4z"/><path class="st120" d="M484.4,300.9h6.9c3.9,0,7.1,3.2,7.1,7.1v5.6c0,3.9-3.2,7.1-7.1,7.1h-6.9c-3.9,0-7.1-3.2-7.1-7.1V308 C477.2,304.1,480.4,300.9,484.4,300.9z"/><path class="st120" d="M237.7,300.9h6.9c3.9,0,7.1,3.2,7.1,7.1v5.6c0,3.9-3.2,7.1-7.1,7.1h-6.9c-3.9,0-7.1-3.2-7.1-7.1V308 C230.6,304.1,233.8,300.9,237.7,300.9z"/><path class="st120" d="M207.9,306.8h330.3c6.9,0,13.1-5.6,13.9-12.5l25.7-232.5c1-9.2-5.7-16.7-14.8-16.7H241 c-9.2,0-17.5,7.5-18.5,16.7l-25.7,232.5C196,301.2,201,306.8,207.9,306.8z"/><path d="M199.4,306.8h330.3c6.9,0,13.1-5.6,13.9-12.5l25.7-232.5c1-9.2-5.7-16.7-14.8-16.7H232.5 c-9.2,0-17.5,7.5-18.5,16.7l-25.7,232.5C187.5,301.2,192.5,306.8,199.4,306.8z" fill-rule="evenodd" clip-rule="evenodd" fill="#5c5d71"/><path class="st122" d="M199.4,296.3h330.3c1.6,0,3.3-1.6,3.5-3.2l25.7-232.5c0.3-2.9-1.5-5.1-4.4-5.1H232.5c-3.9,0-7.7,3.5-8.1,7.4 l-25.7,232.5C198.6,296.1,198.8,296.3,199.4,296.3z"/><path class="st123" d="M227.2,204.9h38.3h13.7h38.3c1.5,0,2.5,1.2,2.2,2.7v0c-0.3,1.5-1.8,2.7-3.2,2.7h-38.3h-13.7h-38.3 c-1.5,0-2.5-1.2-2.2-2.7v0C224.2,206.1,225.7,204.9,227.2,204.9L227.2,204.9z M223.2,229h38.3h13.7h38.3c1.5,0,2.5,1.2,2.2,2.7v0 c-0.3,1.5-1.8,2.7-3.2,2.7h-38.3h-13.7h-38.3c-1.5,0-2.5-1.2-2.2-2.7v0C220.3,230.2,221.7,229,223.2,229L223.2,229z M225.2,216.9 h38.3h13.7h38.3c1.5,0,2.5,1.2,2.2,2.7v0c-0.3,1.5-1.8,2.7-3.2,2.7h-38.3h-13.7h-38.3c-1.5,0-2.5-1.2-2.2-2.7v0 C222.3,218.2,223.7,216.9,225.2,216.9z"/><path class="st124" d="M552.1 121.5L557.9 69.1 223.7 69.1 217.9 121.5z"/><path class="st125" d="M232.3,300.9h6.9c3.9,0,7.1,3.2,7.1,7.1v5.6c0,3.9-3.2,7.1-7.1,7.1h-6.9c-3.9,0-7.1-3.2-7.1-7.1V308 C225.2,304.1,228.4,300.9,232.3,300.9z"/><path class="st125" d="M479,300.9h6.9c3.9,0,7.1,3.2,7.1,7.1v5.6c0,3.9-3.2,7.1-7.1,7.1H479c-3.9,0-7.1-3.2-7.1-7.1V308 C471.9,304.1,475.1,300.9,479,300.9z"/><path d="M47.2,310.9h466.2c2.3,0,4.2,1.9,4.2,4.2v0c0,2.3-1.9,4.2-4.2,4.2H47.2c-2.3,0-4.2-1.9-4.2-4.2v0 C42.9,312.8,44.8,310.9,47.2,310.9z" fill-rule="evenodd" clip-rule="evenodd" fill="#686976"/><path class="st125" d="M22.9,315.1h358.8c5.6,0,10.2,4.6,10.2,10.2l0,0c0,5.6-4.6,10.2-10.2,10.2H22.9c-5.6,0-10.2-4.6-10.2-10.2 l0,0C12.7,319.7,17.3,315.1,22.9,315.1z"/><path class="st120" d="M94.2,315.1h107.9c0,5.6-4.6,10.2-10.2,10.2h-87.5C98.8,325.3,94.2,320.7,94.2,315.1z"/><path class="st120" d="M306,315.1h233c5.6,0,10.2,4.6,10.2,10.2l0,0c0,5.6-4.6,10.2-10.2,10.2H306c-5.6,0-10.2-4.6-10.2-10.2l0,0 C295.9,319.7,300.4,315.1,306,315.1z"/><path class="st127" d="M453.4,320.7h18.2c2.4,0,4.3,1.9,4.3,4.3l0,0c0,2.4-1.9,4.3-4.3,4.3h-18.2c-2.4,0-4.3-1.9-4.3-4.3l0,0 C449.1,322.6,451.1,320.7,453.4,320.7z"/><path class="st125" d="M458.4,322.1h12.3c1.6,0,2.9,1.3,2.9,2.9l0,0c0,1.6-1.3,2.9-2.9,2.9h-12.3c-1.6,0-2.9-1.3-2.9-2.9l0,0 C455.5,323.4,456.8,322.1,458.4,322.1z"/><path d="M460.8,322.1h12.3c1.6,0,2.9,1.3,2.9,2.9l0,0c0,1.6-1.3,2.9-2.9,2.9h-12.3c-1.6,0-2.9-1.3-2.9-2.9l0,0 C457.9,323.4,459.2,322.1,460.8,322.1z" fill-rule="evenodd" clip-rule="evenodd" fill="#b3b4b9"/><path class="st127" d="M315.4,320.7h111.9c2.4,0,4.3,1.9,4.3,4.3l0,0c0,2.4-1.9,4.3-4.3,4.3H315.4c-2.4,0-4.3-1.9-4.3-4.3l0,0 C311,322.6,313,320.7,315.4,320.7z"/><path class="st125" d="M318.6,320.7h111.9c2.4,0,4.3,1.9,4.3,4.3l0,0c0,2.4-1.9,4.3-4.3,4.3H318.6c-2.4,0-4.3-1.9-4.3-4.3l0,0 C314.3,322.6,316.3,320.7,318.6,320.7z"/><path class="st127" d="M497.9,320.7h1.2c2.4,0,4.3,1.9,4.3,4.3l0,0c0,2.4-1.9,4.3-4.3,4.3h-1.2c-2.4,0-4.3-1.9-4.3-4.3l0,0 C493.6,322.6,495.6,320.7,497.9,320.7z"/><path class="st125" d="M500.2,320.7h1.2c2.4,0,4.3,1.9,4.3,4.3l0,0c0,2.4-1.9,4.3-4.3,4.3h-1.2c-2.4,0-4.3-1.9-4.3-4.3l0,0 C495.9,322.6,497.8,320.7,500.2,320.7z"/><path class="st127" d="M500.5,322.9h0.6c1.2,0,2.2,1,2.2,2.2v0c0,1.2-1,2.2-2.2,2.2h-0.6c-1.2,0-2.2-1-2.2-2.2v0 C498.3,323.8,499.3,322.9,500.5,322.9z"/><path class="st127" d="M514.6,320.7h1.2c2.4,0,4.3,1.9,4.3,4.3l0,0c0,2.4-1.9,4.3-4.3,4.3h-1.2c-2.4,0-4.3-1.9-4.3-4.3l0,0 C510.3,322.6,512.3,320.7,514.6,320.7z"/><path class="st125" d="M516.9,320.7h1.2c2.4,0,4.3,1.9,4.3,4.3l0,0c0,2.4-1.9,4.3-4.3,4.3h-1.2c-2.4,0-4.3-1.9-4.3-4.3l0,0 C512.6,322.6,514.5,320.7,516.9,320.7z"/><path class="st129" d="M194.1,248.6c-25.8,0-46.6,20.9-46.6,46.6c0,5.5,0.9,10.7,2.7,15.6H238c1.7-4.9,2.7-10.1,2.7-15.6 C240.7,269.5,219.8,248.6,194.1,248.6z"/><path class="st119" d="M228.4,263.7c-5.3-5.8-12-10.2-19.6-12.7c-2.9-0.8-6-1.3-9.3-1.6c-16.9-1.3-30.6,5.7-30.6,15.6 c0,10,13.7,19.1,30.6,20.4c16.9,1.3,30.6-5.7,30.6-15.6C230.1,267.7,229.5,265.7,228.4,263.7z"/><path class="st129" d="M228,263.8c-19.5,0-35.2,15.8-35.2,35.2c0,4.1,0.7,8.1,2,11.8h66.4c1.3-3.7,2-7.7,2-11.8 C263.2,279.6,247.4,263.8,228,263.8z"/><path class="st119" d="M253.9,275.2c-4-4.4-9.1-7.7-14.8-9.6c-2.2-0.6-4.6-1-7-1.2c-12.8-1-23.1,4.3-23.1,11.8 c0,7.5,10.4,14.4,23.1,15.4c12.8,1,23.1-4.3,23.1-11.8C255.2,278.3,254.8,276.7,253.9,275.2z"/><path class="st130" d="M255.1,274.3c-15.1,0-27.4,12.3-27.4,27.4c0,3.2,0.6,6.3,1.6,9.2h51.6c1-2.9,1.6-6,1.6-9.2 C282.5,286.5,270.3,274.3,255.1,274.3z"/><path class="st119" d="M275.3,283.2c-3.1-3.4-7.1-6-11.5-7.5c-1.7-0.5-3.6-0.8-5.5-0.9c-9.9-0.8-18,3.3-18,9.2 c0,5.8,8.1,11.2,18,12c9.9,0.8,18-3.3,18-9.2C276.3,285.5,276,284.3,275.3,283.2z"/><path class="st130" d="M275.5,310.9c-5-12.7-7.7-26.2-7.7-40.1c0-38.5,20.4-73.4,53.3-98.5c-17.9,21.5-28.3,47.1-28.3,74.6 c0,23.1,7.3,44.9,20.3,64H275.5z"/><path class="st119" d="M301.9,291.5c8,0,14.5,6.5,14.5,14.5c0,1.7-0.3,3.3-0.8,4.9h-27.4c-0.5-1.5-0.8-3.2-0.8-4.9 C287.4,298,293.9,291.5,301.9,291.5z"/><path class="st119" d="M321,172.4c-17.8,21.5-28.1,47.1-28.1,74.5c0,17.8,4.3,34.7,12.2,50.3h-13.9c-5-12.7-7.7-26.2-7.7-40.1 C283.6,225.2,297.6,195.8,321,172.4z"/><path class="st124" d="M529.5,141.6c0.1-0.9-0.5-1.6-1.4-1.6H427.6c-1.2,0-2.4,1.1-2.5,2.3c-3.2,28.7-6.3,57.5-9.5,86.2 c-0.1,0.9,0.5,1.6,1.4,1.6h100.5c1.2,0,2.4-1.1,2.5-2.3C523.2,199,526.4,170.3,529.5,141.6z"/><path d="M536.5,199.7c0.1-0.9-0.5-1.6-1.4-1.6H434.6c-1.2,0-2.4,1.1-2.5,2.3c-3.2,28.7-6.3,57.5-9.5,86.2 c-0.1,0.9,0.5,1.6,1.4,1.6h100.5c1.2,0,2.4-1.1,2.5-2.3C530.1,257.1,533.3,228.4,536.5,199.7z" fill-rule="evenodd" clip-rule="evenodd" fill="#abddf6"/><path class="st122" d="M530,205.1c0.1-0.7-0.4-1.3-1.1-1.3h-89.7c-1,0-1.9,0.9-2,1.8c-2.6,23.2-5.1,46.3-7.7,69.5 c-0.1,0.7,0.4,1.3,1.1,1.3h89.7c1,0,1.9-0.9,2-1.8C524.8,251.4,527.4,228.3,530,205.1z"/><path class="st132" d="M246.2,89.6h32.1c1.5,0,2.5,1.2,2.2,2.7v0c-0.3,1.5-1.8,2.7-3.3,2.7h-32.1c-1.5,0-2.5-1.2-2.2-2.7v0 C243.2,90.8,244.7,89.6,246.2,89.6z"/><path class="st132" d="M244.1,100.1h52c1.5,0,2.5,1.2,2.2,2.7v0c-0.3,1.5-1.8,2.7-3.2,2.7h-52c-1.5,0-2.5-1.2-2.2-2.7l0,0 C241.2,101.3,242.6,100.1,244.1,100.1z"/><path class="st132" d="M305,100.1h5.7c1.5,0,2.5,1.2,2.2,2.7l0,0c-0.3,1.5-1.8,2.7-3.2,2.7H304c-1.5,0-2.5-1.2-2.2-2.7l0,0 C302.1,101.3,303.5,100.1,305,100.1z"/><path class="st127" d="M517.2,322.9h0.6c1.2,0,2.2,1,2.2,2.2v0c0,1.2-1,2.2-2.2,2.2h-0.6c-1.2,0-2.2-1-2.2-2.2v0 C515,323.8,516,322.9,517.2,322.9z"/><path class="st119" d="M261.4,132.1c16.6,0,28.5,13.4,26.6,30c-1.9,16.6-16.8,30-33.4,30c-16.6,0-28.5-13.4-26.6-30 C229.8,145.5,244.8,132.1,261.4,132.1z"/><path class="st124" d="M269.4,182.4c-4.3,3-9.2,4.7-14.4,4.7c-5.1,0-9.7-1.7-13.3-4.7l0.6-5c0.9-8.4,7.9-15.2,15.6-15.2l0,0 c7.6,0,13.1,6.8,12.1,15.2L269.4,182.4z"/><path class="st124" d="M258.8,144.3h1.8c3.6,0,6.2,3,5.8,6.6l-0.8,6.9c-0.4,3.6-3.7,6.6-7.3,6.6h-1.8c-3.6,0-6.2-3-5.8-6.6l0.8-6.9 C251.9,147.2,255.1,144.3,258.8,144.3z"/><path class="st123" d="M303.3,136.2h32.1c1.5,0,2.5,1.2,2.3,2.7v0c-0.2,1.5-1.7,2.7-3.2,2.7h-32.1c-1.5,0-2.5-1.2-2.3-2.7v0 C300.4,137.4,301.8,136.2,303.3,136.2z"/><path class="st123" d="M302,147.1h32.1c1.5,0,2.5,1.2,2.3,2.7v0c-0.3,1.5-1.7,2.7-3.2,2.7h-32.1c-1.5,0-2.5-1.2-2.3-2.7v0 C299.1,148.3,300.5,147.1,302,147.1z"/><linearGradient id="SVGID_6_" gradientUnits="userSpaceOnUse" y1="347.416" x2="629.303" y2="347.416"><stop offset="0" stop-color="#3955a2"/><stop offset=".927" stop-color="#3d4395"/><stop offset="1" stop-color="#3d4194"/></linearGradient><path d="M12,335.4h605.4c6.6,0,12,5.4,12,12v0 c0,6.6-5.4,12-12,12H12c-6.6,0-12-5.4-12-12v0C0,340.8,5.4,335.4,12,335.4z" fill-rule="evenodd" clip-rule="evenodd" fill="url(#SVGID_6_)"/><path d="M136.3,335.4h36.9c6.6,0,12,5.4,12,12v0c0,6.6-5.4,12-12,12h-36.9c-6.6,0-12-5.4-12-12v0 C124.4,340.8,129.7,335.4,136.3,335.4z" fill-rule="evenodd" clip-rule="evenodd" fill="#c8a28d"/><path class="st123" d="M374.8,150.1c0.9-3.7,2.1-7.4,3.6-10.9l-0.6-0.6c-0.1-0.1-0.2-0.3-0.4-0.4c-0.4,0.3-0.9,0.4-1.4,0.4h-18.2 c-0.7,0-1.3-0.3-1.8-0.8l-9.1-9.1c-0.2-0.2-0.4-0.5-0.5-0.7c-2.6,1.9-4.4,2.9-4.9,2.4c-1.1-1.1,5.4-9.3,14.5-18.4 c9.1-9.1,17.3-15.6,18.4-14.5c0.5,0.5-0.8,2.9-3.5,6.3h16.4c0.7,0,1.3,0.3,1.8,0.8l0.2,0.2c4.3-7,9.4-13.5,15.3-19.3 c13-13,28.8-22.1,46-26.9l0.5-0.1c0.7-0.2,1.4-0.4,2.1-0.5l0.1,0l1-0.2l0.5-0.1l1-0.2l0.1,0l0.5-0.1l0.5-0.1l0.5-0.1 c0.7-0.1,1.5-0.3,2.2-0.4l0.5-0.1l0,0l0.5-0.1l0.6-0.1l0.6-0.1l0.6-0.1l0.6-0.1l0.5-0.1l0,0l0.6-0.1l0.6-0.1l0.5-0.1l0,0l0.6-0.1 l0.5-0.1l0,0l0.2,0l0.1,0c9.7,0,19.4,0,29,0l-3.4,4l0,0l0,0v0l0,0l0,0l0,0l0,0l0,0l0,0l0,0l0,0l0,0l0,0l0,0l0,0v0l0,0l0,0l0,0l0,0 l0,0l0,0l0,0l0,0l0,0l0,0l0,0l0,0v0l0,0l0,0l0,0l0,0l0,0l0,0l0,0l0,0l0,0l0,0l0,0l0,0v0l0,0l0,0l0,0l0,0l0,0l0,0l0,0l0,0l0,0l0,0 l0,0l0,0l0,0l0,0l0,0l0,0l0,0l0,0l0,0l0,0l0,0l0,0l0,0l0,0v0l0,0l0,0l0,0l0,0l0,0l0,0l0,0l0,0l0,0v0l0,0l0,0v0l0,0l0,0v0l0,0l0,0 l0,0l0,0l0,0l0,0l0,0l0,0l0,0c0.1,0.9,0.1,1.9,0.2,2.8v0c0,0.9,0.1,1.9,0.1,2.8v0l0,1.3l0,0.1v0.3l0,1.1v0v0v0c0,0.9,0,1.8-0.1,2.7 l0,0.1v0l0,0.1l0,1l0,0.3l0,0.3L493,76l0,0l0,0.1l-0.1,1l0,0.3l0,0.3l0,0.6l0,0.6l0,0l-0.1,0.5l-0.1,0.6l0,0.1l-0.1,0.6l-0.1,0.8 l0,0.2l0,0l-0.1,0.5l-0.1,0.6l0,0l-0.1,0.5l-0.1,0.6l-0.1,0.6l0,0l-0.1,0.5l-0.1,0.6l-0.1,0.6l-0.1,0.6l-0.1,0.6l-0.1,0.5l0,0 l-0.1,0.5c-0.1,0.7-0.3,1.5-0.4,2.2l-0.1,0.5l-0.1,0.5l-0.1,0.5l0,0.1l-0.2,1l-0.1,0.5l-0.2,1l0,0.1c-0.2,0.7-0.4,1.4-0.5,2.1 l-0.1,0.5c-4.8,17.2-13.9,33.1-26.9,46c-5.9,5.9-12.3,11-19.3,15.3l0.2,0.2l0,0l0,0l0,0l0,0l0,0l0,0l0,0l0,0l0,0l0,0l0,0l0,0v0l0,0 l0,0v0l0,0l0,0l0,0l0,0h0l0,0l0,0h0l0,0l0,0l0,0h0l0,0v0l0,0l0,0l0,0l0,0v0l0,0l0,0l0,0.1l0,0l0,0l0,0v0l0,0v0l0,0l0,0l0,0h0l0,0 l0,0v0l0,0h0l0,0l0,0h0l0,0l0,0l0,0h0l0,0l0,0l0,0v0l0,0h0l0,0l0,0l0,0l0,0h0l0,0h0l0,0l0,0l0,0h0l0,0v0l0,0h0v0l0,0v0l0,0v4.7 v11.8c3.4-2.7,5.8-4.1,6.3-3.5c1.1,1.1-5.4,9.3-14.5,18.4c-9.1,9.1-17.3,15.6-18.4,14.5c-0.5-0.5,0.5-2.3,2.4-4.9 c-0.3-0.1-0.5-0.3-0.7-0.5l-9.1-9.1c-0.5-0.5-0.8-1.1-0.8-1.8v-12.9v-5.2c0-0.5,0.1-1,0.4-1.4c-0.1-0.1-0.3-0.2-0.4-0.4l-0.6-0.6 c-3.5,1.5-7.1,2.7-10.9,3.6c-0.8,0.2-1.6,0-2.2-0.6l-2.2-2.2c-2.8,4.9-6.2,9.4-10.4,13.6c-10.6,10.6-23.9,16.7-37.7,18.4 c1.7-13.8,7.8-27.1,18.4-37.7c4.1-4.1,8.7-7.6,13.6-10.4l-2.2-2.2C374.8,151.7,374.6,150.9,374.8,150.1z"/><path class="st135" d="M586.9,161.2l-8.6,2.3c-0.7,0.2-1.3,0.7-1.5,1.5c-0.2,0.7,0,1.5,0.5,2l6.3,6.3c0.5,0.5,1.3,0.7,2,0.5 c0.7-0.2,1.3-0.7,1.5-1.5l2.3-8.6c0.2-0.7,0-1.5-0.5-2C588.4,161.2,587.6,161,586.9,161.2z"/><path class="st119" d="M422.1,127.7l-60.9,44.9C361.2,172.6,393.9,155.2,422.1,127.7z"/><path class="st136" d="M366.8,126.7c1.4-11.8,6.7-23.3,15.8-32.3c9.1-9.1,20.5-14.3,32.3-15.8c-1.4,11.8-6.7,23.3-15.8,32.3 C390,120,378.6,125.3,366.8,126.7z"/><path class="st119" d="M383.2,110.3c0.8-6.3,3.5-12.3,8.3-17.1c4.8-4.8,10.9-7.6,17.1-8.3c-0.8,6.3-3.5,12.3-8.3,17.1 C395.5,106.7,389.5,109.5,383.2,110.3z"/><linearGradient id="SVGID_8_" gradientUnits="userSpaceOnUse" x1="406.161" y1="38.979" x2="377.161" y2="71.229"><stop offset="0" stop-color="#f18561"/><stop offset="1" stop-color="#b8589d"/></linearGradient><path d="M404.2,42.8l7.8,7.8c0.9,0.9,0.9,2.3,0,3.2l-17.5,17.5 c-0.4,0.4-1,0.7-1.6,0.7h-15.6c-0.6,0-1.1-0.2-1.6-0.7l-7.8-7.8c-0.9-0.9-0.9-2.3,0-3.2l17.5-17.5c0.4-0.4,1-0.7,1.6-0.7h15.6 C403.2,42.1,403.8,42.3,404.2,42.8z" fill-rule="evenodd" clip-rule="evenodd" fill="url(#SVGID_8_)"/><linearGradient id="SVGID_9_" gradientUnits="userSpaceOnUse" x1="454.552" y1="87.249" x2="424.052" y2="114.749"><stop offset="0" stop-color="#f18561"/><stop offset="1" stop-color="#b8589d"/></linearGradient><path d="M450.7,89.3l-7.8-7.8c-0.9-0.9-2.3-0.9-3.2,0L422.2,99 c-0.4,0.4-0.7,1-0.7,1.6v15.6c0,0.6,0.2,1.1,0.7,1.6l7.8,7.8c0.9,0.9,2.3,0.9,3.2,0l17.5-17.5c0.4-0.4,0.7-1,0.7-1.6V90.9 C451.4,90.3,451.2,89.7,450.7,89.3z" fill-rule="evenodd" clip-rule="evenodd" fill="url(#SVGID_9_)"/><path class="st116" d="M450.7,89.3l-7.8-7.8c-0.9-0.9-2.3-0.9-3.2,0L422.2,99c-0.4,0.4-0.7,1-0.7,1.6v4.5c1.3,0.4,2.8,0.4,4.2,0 c9-2.2,17.7-5.6,25.6-10.3l0-4C451.4,90.3,451.2,89.7,450.7,89.3z"/><path d="M391.8,81.7c2.5-10.4,7.8-19.9,15.4-27.5c11.9-11.9,28.4-18.1,45.2-16.9c2,0.1,3.5,1.7,3.7,3.7 c1.2,16.8-4.9,33.3-16.9,45.2c-7.6,7.6-17.1,12.9-27.5,15.4c-0.7,0.2-1.4,0-1.9-0.5l-17.5-17.5C391.8,83.1,391.6,82.4,391.8,81.7z" fill-rule="evenodd" clip-rule="evenodd" fill="#595a73"/><path d="M393.6,69c3.9-16.1,12.1-30.9,23.9-42.6c18.5-18.5,44-28,70.1-26.1c1.8,0.1,3.4,1,4.4,2.3L408.5,86 l-14.1-14.1C393.6,71.1,393.3,70.1,393.6,69z" fill-rule="evenodd" clip-rule="evenodd" fill="#eceff1"/><path class="st141" d="M491.5,2c1,1,1.7,2.4,1.8,3.9c1.8,26.1-7.6,51.5-26.1,70.1c-11.7,11.7-26.5,20-42.6,23.9 c-1.1,0.3-2.1,0-2.9-0.8L408,85.5L491.5,2z"/><path class="st142" d="M414.7,78.7l76.5-76.5c-1.3,21.8-10.5,42.5-26.2,58.2c-11.7,11.7-26.5,20-42.6,23.9c-1.1,0.3-2.1,0-2.9-0.8 L414.7,78.7z"/><path class="st141" d="M418.4,95.9L408,85.5l19-19l1,1c0.4,0.4,0.7,1,0.7,1.6l0,15.6c0,0.6-0.2,1.1-0.7,1.6L418.4,95.9z"/><linearGradient id="SVGID_10_" gradientUnits="userSpaceOnUse" x1="466.416" y1="-.905" x2="506.416" y2="32.095"><stop offset="0" stop-color="#f18561"/><stop offset="1" stop-color="#b8589d"/></linearGradient><path d="M457,3.3c9.8-2.7,20.1-3.8,30.6-3.1 c3.1,0.2,5.5,2.6,5.7,5.7c0.7,10.4-0.3,20.7-3.1,30.6L457,3.3z" fill-rule="evenodd" clip-rule="evenodd" fill="url(#SVGID_10_)"/><ellipse transform="rotate(-45.001 449.741 43.755)" class="st142" cx="449.7" cy="43.7" rx="16.7" ry="16.7"/><linearGradient id="SVGID_11_" gradientUnits="userSpaceOnUse" x1="431.956" y1="68.219" x2="392.206" y2="93.969"><stop offset="0" stop-color="#f18561"/><stop offset="1" stop-color="#b8589d"/></linearGradient><path d="M398,93.5l2,2c0.8,0.8,2.2,0.8,3.1,0L428,70.6 c0.8-0.8,0.8-2.2,0-3.1l-2-2c-0.8-0.8-2.2-0.8-3.1,0L398,90.5C397.1,91.3,397.1,92.7,398,93.5z" fill-rule="evenodd" clip-rule="evenodd" fill="url(#SVGID_11_)"/><ellipse transform="rotate(-45.001 449.742 46.706)" class="st141" cx="449.7" cy="46.7" rx="13.2" ry="13.2"/><linearGradient id="SVGID_12_" gradientUnits="userSpaceOnUse" x1="436.589" y1="43.75" x2="462.89" y2="43.75"><stop offset="0" stop-color="#f18561"/><stop offset="1" stop-color="#b8589d"/></linearGradient><circle cx="449.7" cy="43.7" r="13.2" fill-rule="evenodd" clip-rule="evenodd" fill="url(#SVGID_12_)"/><ellipse transform="rotate(-30 449.727 43.77)" cx="449.7" cy="43.7" rx="9.3" ry="9.3" fill-rule="evenodd" clip-rule="evenodd" fill="#99cdd2"/><path class="st119" d="M446,37.3c3.6-2.1,8.1-0.8,10.2,2.7c2.1,3.6-3.8,0.1-7.4,2.1c-3.6,2.1-3.5,8.9-5.5,5.3 C441.3,43.9,442.5,39.4,446,37.3z"/><path class="st119" d="M398.6,60.7c4.5-12.1,11.6-23.2,20.8-32.4C431,16.7,445.3,8.6,460.7,4.7c-14.6,6.5-28.5,16-40.5,28 C411.7,41.2,404.4,50.7,398.6,60.7z"/><path class="st136" d="M351.6,141.9c1-8.3,3.9-16.5,8.7-23.8c-1.9,5.5-2.8,11.5-2.7,17.7c6.2,0.1,12.2-0.8,17.7-2.7 C368.1,138,359.9,140.9,351.6,141.9z"/><ellipse transform="rotate(-45.001 377.395 50.815)" class="st116" cx="377.4" cy="50.8" rx="19.9" ry="2.4"/><ellipse transform="rotate(-45.001 442.679 116.101)" class="st116" cx="442.7" cy="116.1" rx="19.9" ry="2.4"/><ellipse transform="rotate(-45.001 410.038 83.458)" class="st116" cx="410" cy="83.5" rx="19.9" ry="2.4"/><path class="st119" d="M401.8,9.2l-8.6,2.3c-0.7,0.2-1.3,0.7-1.5,1.5c-0.2,0.7,0,1.5,0.5,2l6.3,6.3c0.5,0.5,1.3,0.7,2,0.5 c0.7-0.2,1.3-0.7,1.5-1.5l2.3-8.6c0.2-0.7,0-1.5-0.5-2C403.3,9.2,402.5,9,401.8,9.2z"/><path class="st119" d="M411.3,0.5l-7.1,1.9c-0.6,0.2-1.1,0.6-1.2,1.2c-0.2,0.6,0,1.2,0.4,1.7l5.2,5.2c0.5,0.4,1.1,0.6,1.7,0.4 c0.6-0.2,1.1-0.6,1.2-1.2l1.9-7.1c0.2-0.6,0-1.2-0.4-1.7C412.6,0.5,411.9,0.3,411.3,0.5z"/><path class="st136" d="M343.8,149.8c0.6-4.8,2.3-9.5,5-13.6c-1.1,3.2-1.6,6.6-1.6,10.2c3.6,0,7-0.5,10.2-1.6 C353.3,147.5,348.6,149.2,343.8,149.8z"/><path class="st119" d="M363.5,72.7l-43.9,61.6C319.6,134.3,336.4,101.3,363.5,72.7z"/><path class="st122" d="M465.8,140h-38.2c-1.2,0-2.4,1.1-2.5,2.3l-6.4,58.2l0.7,0.7c0.2,0.2,0.5,0.4,0.7,0.5c-0.8,1-1.4,1.9-1.8,2.7 l-0.3,2.3c1.9,0,9.6-6.2,18.1-14.6c9.1-9.1,15.6-17.3,14.5-18.4c-0.5-0.5-2.9,0.8-6.3,3.5v-11.8v-4.7l0,0v0l0,0v0h0l0,0v0l0,0h0 l0,0l0,0l0,0h0l0,0h0l0,0l0,0l0,0l0,0h0l0,0v0l0,0l0,0l0,0h0l0,0l0,0l0,0h0l0,0l0,0h0l0,0v0l0,0l0,0h0l0,0l0,0l0,0v0l0,0v0l0,0l0,0 l0,0l0-0.1l0,0l0,0v0l0,0l0,0l0,0l0,0v0l0,0h0l0,0l0,0l0,0h0l0,0l0,0h0l0,0l0,0l0,0l0,0v0l0,0l0,0v0l0,0l0,0l0,0l0,0l0,0l0,0l0,0 l0,0l0,0l0,0l0,0l0,0l-0.2-0.2c7-4.3,13.5-9.4,19.3-15.3C463.7,142.3,464.8,141.2,465.8,140z"/><path class="st119" d="M445.6,166.2h52c1.5,0,2.5,1.2,2.3,2.7v0c-0.2,1.5-1.7,2.7-3.2,2.7h-52c-1.5,0-2.5-1.2-2.3-2.7v0 C442.7,167.5,444.1,166.2,445.6,166.2z"/><path class="st119" d="M506.5,166.2h5.7c1.5,0,2.5,1.2,2.3,2.7v0c-0.3,1.5-1.7,2.7-3.2,2.7h-5.7c-1.5,0-2.5-1.2-2.3-2.7v0 C503.6,167.5,505,166.2,506.5,166.2z"/><path class="st119" d="M447.4,155.7h32.1c1.5,0,2.5,1.2,2.3,2.7v0c-0.3,1.5-1.7,2.7-3.2,2.7h-32.1c-1.5,0-2.5-1.2-2.3-2.7v0 C444.5,157,445.9,155.7,447.4,155.7z"/><path class="st132" d="M443.8,224.4H476c1.5,0,2.5,1.2,2.3,2.7l0,0c-0.2,1.5-1.7,2.7-3.2,2.7h-32.1c-1.5,0-2.5-1.2-2.3-2.7l0,0 C440.9,225.6,442.3,224.4,443.8,224.4z"/><path class="st132" d="M442.4,235.3h18.7c1.5,0,2.6,1.2,2.4,2.7v0c-0.2,1.5-1.5,2.7-3,2.7h-18.7c-1.5,0-2.6-1.2-2.4-2.7l0,0 C439.6,236.5,440.9,235.3,442.4,235.3z"/><path class="st123" d="M512.4,97.3h32.1c1.5,0,2.5,1.2,2.3,2.7v0c-0.3,1.5-1.7,2.7-3.2,2.7h-32.1c-1.5,0-2.5-1.2-2.3-2.7v0 C509.5,98.5,510.9,97.3,512.4,97.3z"/><path class="st123" d="M511.2,107.8h17c1.5,0,2.6,1.2,2.4,2.7v0c-0.2,1.5-1.5,2.7-3,2.7h-17c-1.5,0-2.6-1.2-2.4-2.7v0 C508.4,109.1,509.7,107.8,511.2,107.8z"/><path d="M394.2,352.5h11.3c3.8,0,6.9,3.1,6.9,6.9l0,0c0,3.8-3.1,6.9-6.9,6.9h-11.3c-3.8,0-6.9-3.1-6.9-6.9l0,0 C387.3,355.6,390.4,352.5,394.2,352.5z" fill-rule="evenodd" clip-rule="evenodd" fill="#e45555"/><path d="M394.2,352.5h11.3c2.2,0,4.1,1,5.4,2.6c-0.3,3.5-3.3,6.3-6.9,6.3h-11.3c-2.2,0-4.1-1-5.4-2.6 C387.6,355.3,390.6,352.5,394.2,352.5z" fill-rule="evenodd" clip-rule="evenodd" fill="#ec6265"/><path d="M393,351.2h3.6c4.5,0,8.2,3.7,8.2,8.2v0c0,4.5-3.7,8.2-8.2,8.2H393c-4.5,0-8.2-3.7-8.2-8.2v0 C384.8,354.9,388.5,351.2,393,351.2z" fill-rule="evenodd" clip-rule="evenodd" fill="#d9e8f2"/><path d="M392.2,367.5c-4.1-0.4-7.4-3.9-7.4-8.2l0,0c0-4.2,3.3-7.8,7.4-8.2c4.1,0.4,7.4,3.9,7.4,8.2v0 C399.6,363.6,396.3,367.1,392.2,367.5z" fill-rule="evenodd" clip-rule="evenodd" fill="#c5d2db"/><path d="M251.3,351.2l137.3,0c4.5,0,8.2,3.7,8.2,8.2v0c0,4.5-3.7,8.2-8.2,8.2l-137.3,0c-4.5,0-8.2-3.7-8.2-8.2v0 C243.1,354.9,246.8,351.2,251.3,351.2z" fill-rule="evenodd" clip-rule="evenodd" fill="#f0be4b"/><path d="M251.3,351.2l137.3,0c4.5,0,8.2,3.7,8.2,8.2l-149.6,0c-1.7,0-3.1-1-3.7-2.4 C244.5,353.6,247.6,351.2,251.3,351.2z" fill-rule="evenodd" clip-rule="evenodd" fill="#fecf63"/><path d="M251.3,351.2h3.6c4.5,0,8.2,3.7,8.2,8.2v0c0,4.5-3.7,8.2-8.2,8.2h-3.6c-4.5,0-8.2-3.7-8.2-8.2v0 C243.1,354.9,246.8,351.2,251.3,351.2z" fill-rule="evenodd" clip-rule="evenodd" fill="#fac08b"/><path d="M256.1,351.3c3.9,0.6,7,4,7,8.1v0c0,4.1-3,7.5-7,8.1c-3.9-0.6-7-4-7-8.1v0 C249.1,355.3,252.2,351.9,256.1,351.3z" fill-rule="evenodd" clip-rule="evenodd" fill="#f6a964"/><path class="st155" d="M236.8,356.1h13c1.8,0,3.3,1.5,3.3,3.3v0c0,1.8-1.5,3.3-3.3,3.3h-13c-1.8,0-3.3-1.5-3.3-3.3v0 C233.5,357.6,235,356.1,236.8,356.1z"/><path d="M236.8,356.1h4.3c1.8,0,3.3,1.5,3.3,3.3v0c0,1.8-1.5,3.3-3.3,3.3h-4.3c-1.8,0-3.3-1.5-3.3-3.3v0 C233.5,357.6,235,356.1,236.8,356.1z" fill-rule="evenodd" clip-rule="evenodd" fill="#9a9999"/><path class="st157" d="M289.8,357.6h7.5c1,0,1.8,0.8,1.8,1.8v0c0,1-0.8,1.8-1.8,1.8h-7.5c-1,0-1.8-0.8-1.8-1.8v0 C288,358.4,288.9,357.6,289.8,357.6z"/><path class="st157" d="M283.2,357.6h2c1,0,1.8,0.8,1.8,1.8v0c0,1-0.8,1.8-1.8,1.8h-2c-1,0-1.8-0.8-1.8-1.8v0 C281.4,358.4,282.2,357.6,283.2,357.6z"/><path d="M236.4,358.1h1.7c0.7,0,1.3,0.6,1.3,1.3l0,0c0,0.7-0.6,1.3-1.3,1.3h-1.7c-0.7,0-1.3-0.6-1.3-1.3l0,0 C235.1,358.7,235.7,358.1,236.4,358.1z" fill-rule="evenodd" clip-rule="evenodd" fill="#b4b4b4"/><path class="st119" d="M398.9,354.9c1.3-0.2,2.7,0.1,3.1,0.7c0.4,0.6-0.4,1.3-1.7,1.5c-1.3,0.2-2.7-0.1-3.1-0.7 C396.8,355.8,397.6,355.2,398.9,354.9z"/><path class="st118" d="M374.7,352.7h10.3c1.3,0,2.5,1.1,2.5,2.4v0c0,1.3-1.1,2.4-2.5,2.4h-10.3c-1.3,0-2.4-1.1-2.4-2.4v0 C372.2,353.8,373.3,352.7,374.7,352.7z"/><path class="st118" d="M267.5,353h7.5c1,0,1.8,0.8,1.8,1.8v0c0,1-0.8,1.8-1.8,1.8h-7.5c-1,0-1.8-0.8-1.8-1.8v0 C265.7,353.8,266.5,353,267.5,353z"/><path d="M121.4,335.4H225c-10.1,0-21.2,8.3-24.5,18.4l-6.1,18.4H90.8l6.1-18.4C100.2,343.7,111.3,335.4,121.4,335.4z" fill-rule="evenodd" clip-rule="evenodd" fill="#fbe0d3"/><path class="st155" d="M110.4,352.1h39.7c1.1,0,1.9,0.9,1.6,2.1l0,0c-0.3,1.1-1.5,2.1-2.6,2.1h-39.7c-1.1,0-1.9-0.9-1.6-2.1l0,0 C108,353.1,109.2,352.1,110.4,352.1z"/><path class="st155" d="M119.1,343.6h59.1c1.1,0,1.8,0.9,1.3,2.1v0c-0.4,1.1-1.7,2.1-2.8,2.1h-59.1c-1.1,0-1.8-0.9-1.3-2.1v0 C116.6,344.5,117.9,343.6,119.1,343.6z"/><path class="st135" d="M596.8,150.9l-8.6,2.3c-0.7,0.2-1.3,0.7-1.5,1.5c-0.2,0.7,0,1.5,0.5,2l6.3,6.3c0.5,0.5,1.3,0.7,2,0.5 c0.7-0.2,1.3-0.7,1.5-1.5l2.3-8.6c0.2-0.7,0-1.5-0.5-2C598.3,150.9,597.6,150.7,596.8,150.9z"/><path class="st135" d="M108,100.2l-8.6,2.3c-0.7,0.2-1.3,0.7-1.5,1.5c-0.2,0.7,0,1.5,0.5,2l6.3,6.3c0.5,0.5,1.3,0.7,2,0.5 c0.7-0.2,1.3-0.7,1.5-1.5l2.3-8.6c0.2-0.7,0-1.5-0.5-2C109.5,100.2,108.8,100,108,100.2z"/><path class="st135" d="M118,89.9l-8.6,2.3c-0.7,0.2-1.3,0.7-1.5,1.5s0,1.5,0.5,2l6.3,6.3c0.5,0.5,1.3,0.7,2,0.5 c0.7-0.2,1.3-0.7,1.5-1.5l2.3-8.6c0.2-0.7,0-1.5-0.5-2C119.4,89.9,118.7,89.7,118,89.9z"/><path class="st119" d="M314.1,208.1c-11.6,16.8-16.8,36.9-13.8,58.4c2,13.9,7.2,27.2,15.2,39.4h-10.9c-5.3-10-8.9-20.5-10.4-31.4 C290.6,249.4,298.3,226.4,314.1,208.1z"/><path class="st130" d="M330.7,275.7c14.5,0,26.3,11.8,26.3,26.3c0,3.1-0.5,6.1-1.5,8.8h-49.6c-1-2.8-1.5-5.7-1.5-8.8 C304.4,287.5,316.2,275.7,330.7,275.7z"/><path class="st119" d="M311.3,284.2c3-3.3,6.8-5.8,11.1-7.2c1.7-0.4,3.4-0.7,5.2-0.9c9.5-0.7,17.3,3.2,17.3,8.8 c0,5.6-7.7,10.8-17.3,11.5c-9.5,0.7-17.3-3.2-17.3-8.8C310.4,286.5,310.7,285.3,311.3,284.2z"/><path d="M365.2,263.2c19.7,0,35.7,16,35.7,35.7c0,4.2-0.7,8.2-2.1,12h-67.2c-1.3-3.7-2.1-7.8-2.1-12 C329.5,279.2,345.5,263.2,365.2,263.2z" fill-rule="evenodd" clip-rule="evenodd" fill="#f7dee6"/><path class="st119" d="M338.9,274.8c4-4.4,9.2-7.8,15-9.7c2.2-0.6,4.6-1,7.1-1.2c12.9-1,23.4,4.4,23.4,12 c0,7.6-10.5,14.6-23.4,15.6c-12.9,1-23.4-4.4-23.4-12C337.6,277.9,338,276.3,338.9,274.8z"/><path class="st129" d="M411.5,247.6c26.2,0,47.4,21.2,47.4,47.4c0,5.6-1,10.9-2.7,15.9h-89.3c-1.8-5-2.7-10.3-2.7-15.9 C364.2,268.8,385.4,247.6,411.5,247.6z"/><path class="st119" d="M376.6,263c5.4-5.9,12.2-10.4,19.9-12.9c3-0.8,6.1-1.3,9.4-1.6c17.2-1.3,31.1,5.8,31.1,15.9 c0,10.1-13.9,19.4-31.1,20.7c-17.2,1.3-31.1-5.8-31.1-15.9C374.9,267,375.5,265,376.6,263z"/><path class="st119" d="M221.7,299.6c-6.3-1.9-67.6-20.6-67.6-20.6s26.9,19.4,22.7,18.3c-4.2-1.1-98.3-19.8-98.3-19.8l114.9,29.4 l-8.7-13.8L221.7,299.6z"/><path class="st119" d="M317.4,302.1c7.7-1.9,82-20.6,82-20.6s-32.7,19.4-27.5,18.3c5.1-1.1,119.1-19.8,119.1-19.8l-139.3,29.4 l10.6-13.8L317.4,302.1z"/></svg>