<svg id="Layer_1" xmlns="http://www.w3.org/2000/svg" viewBox="0 0 35.2 35.2"><style/><linearGradient id="SVGID_2_" gradientUnits="userSpaceOnUse" x1="2.686" y1="2.86" x2="45.436" y2="45.11"><stop offset="0" stop-color="#f18561"/><stop offset="1" stop-color="#b8589d"/></linearGradient><path d="M17.6,0C7.8,0,0,7.8,0,17.6c0,9.8,7.8,17.6,17.6,17.6c9.8,0,17.6-7.8,17.6-17.6 C35.2,7.8,27.4,0,17.6,0L17.6,0z" fill="url(#SVGID_2_)"/><path d="M27.8,12.1L15,25.4c-0.2,0.2-0.3,0.2-0.6,0.2c-0.2,0-0.5-0.1-0.6-0.2l-6.2-6.7l-0.2-0.2 c-0.2-0.2-0.2-0.4-0.2-0.6c0-0.2,0.1-0.4,0.2-0.6l1.1-1.1c0.3-0.3,0.8-0.3,1.1,0l0.1,0.1l4.4,4.7c0.2,0.2,0.4,0.2,0.6,0L25.4,9.9 h0.1c0.3-0.3,0.8-0.3,1.1,0l1.1,1.1C28.1,11.3,28.1,11.8,27.8,12.1L27.8,12.1z" fill="#fff"/></svg>