<svg id="Layer_1" xmlns="http://www.w3.org/2000/svg" xmlns:xlink="http://www.w3.org/1999/xlink" viewBox="0 0 280.1 217.3"><style>.st15{fill:#fff}.st25{fill:#f4af9f}.st27{opacity:.72}.st33{fill:#e2e5f4}.st37{fill:#2d3445}.st38{fill:#f2907e}.st42{fill:#ef7c7e}.st43{fill:#8ab5e1}.st46{fill:#fad8de}.st47{fill:#fffbfd}.st53{fill:#ed6e6f}.st109{fill:#6f7a96}</style><path class="st43" d="M266.9,131.4c-0.6,0-1.1-0.5-1.1-1.1c0-9.4-3.2-11.3-10.1-15.5c-3.3-2-7.5-4.5-12.3-8.5 C237,101,232,93.6,228.2,83.7c-0.2-0.6,0.1-1.2,0.7-1.5c0.6-0.2,1.2,0.1,1.5,0.7c3.7,9.6,8.4,16.7,14.4,21.6 c4.7,3.9,8.8,6.4,12.1,8.3c7,4.2,11.2,6.7,11.2,17.4C268,130.9,267.5,131.4,266.9,131.4z"/><path class="st43" d="M174.2,45.7c-8.7,0-15.9-7.6-23.5-15.6c-9.5-10-20.3-21.4-36.6-21.4c-0.6,0-1.1-0.5-1.1-1.1 c0-0.6,0.5-1.1,1.1-1.1c17.3,0,28.5,11.8,38.3,22.1c7.6,8,14.1,14.9,21.9,14.9c0.6,0,1.1,0.5,1.1,1.1 C175.4,45.1,174.8,45.7,174.2,45.7z"/><path class="st43" d="M36.4,40.6c-0.1,0-0.3,0-0.4-0.1c-0.6-0.2-0.8-0.9-0.6-1.5C43.9,18.8,69.8,6.3,89,6.3 c0.6,0,1.1,0.5,1.1,1.1S89.6,8.6,89,8.6c-18.5,0-43.6,12.6-51.5,31.4C37.3,40.4,36.9,40.6,36.4,40.6z"/><path class="st43" d="M27.7,91.4c-0.6,0-1.1-0.4-1.1-1c-0.4-2.9-0.7-5.7-1-8.6c-0.1-0.6,0.4-1.2,1-1.3c0.6,0,1.2,0.4,1.3,1 c0.3,2.8,0.7,5.7,1,8.6c0.1,0.6-0.4,1.2-1,1.3C27.8,91.4,27.8,91.4,27.7,91.4z"/><path class="st33" d="M213,90.6c1.1,5.7,2.3,11.4,4.5,16.9c2.2,5.4,5.2,10.5,9.5,14.5c4.3,3.9,9.9,6.6,15.7,6.8 c2.2,0.1,4.6-0.2,6.5-1.3c2-1.1,3.6-2.9,3.9-5.2c0.2-1.4-0.1-2.9-1-3.9c-1-1.1-2.6-1.5-4-1.9c-5.3-1.7-9.7-5.6-13-10.1 c-3.3-4.5-5.6-9.7-7.8-14.8c-0.9-2-1.8-4.1-3.1-5.9c-1.3-1.8-3.2-3.2-5.4-3.6c-2.2-0.4-4.7,0.5-5.7,2.5c-1.1,2.1-0.4,4.6,0.3,6.8 L213,90.6z"/><path d="M29.9,124.9c-5.8,5.7-12.7,10.3-20.2,13.6c-1,0.4-1.9,0.8-2.7,1.6c-0.7,0.7-1.1,1.9-0.7,2.8 c0.7,1.4,2.6,1.4,4.1,1.1c7.8-1.5,14.7-6.3,20.4-11.8c1.1-1,2.2-2.2,2.7-3.6c0.5-1.4,0.3-3.2-1-4.1c-1.2-0.9-3.4-0.2-3.5,1.2 L29.9,124.9z" fill="#f2f4fb"/><path class="st33" d="M7.3,196.9c-5.3-4.8-7.9-12.9-7.2-20.3c0.7-8.1,4.7-15.7,10.2-21.7c10.6-11.8,33-20.9,29.7-40.3 c-1.2-7-4.3-13.5-5.3-20.5c-4.9-35.8,35.9-48.5,63.5-51.3c33.6-3.4,84.4,4.7,101.4,37.9c2.5,4.9,5.6,10.3,7.4,15.6 c3.8,11.3,3.4,25.9,15,32.6c5.6,3.3,12.2,4.4,18.5,5.6c6.4,1.2,12.9,2.7,18.1,6.6c8.2,6,11.8,16.9,10.8,27 c-3,31.3-29.3,38.4-56.2,37.6c-18.9-0.6-37.8-1.6-56.7-2.6c-22.2-1.2-44.4-2.4-66.5-3.7c0,0-70.6,1.9-70.7,1.9 C14.4,201.5,10.4,199.7,7.3,196.9z"/><path class="st42" d="M100.1,209.2c0,0,20.5,0.1,29-0.1c9.3-0.2,42.5,3.3,50.9-2.7c1.7-1.2,2.1-4.8,1.6-11.2 c-0.5-6.6,1.2-18.7,1.2-18.7s-11.1-11.2-21-12.3c-7-0.8-12.6,17.9-25.4,20c-5.5,0.9-16.3,3.4-33.8-12.1L100.1,209.2z"/><path class="st53" d="M166.9,209.6l-12.2-33.1c-1.3,17.2,2.7,26.4,6.3,33.3C163,209.9,165,209.8,166.9,209.6z"/><linearGradient id="SVGID_2_" gradientUnits="userSpaceOnUse" x1="299.114" y1="109.022" x2="225.878" y2="162.128"><stop offset="0" stop-color="#fff"/><stop offset=".873" stop-color="#525252"/><stop offset="1" stop-color="#383938"/></linearGradient><path d="M258.6,141.2c-5.2-3.8-11.8-5.3-18.1-6.6c-6.4-1.2-12.9-2.4-18.5-5.6 c-5-2.9-7.7-7.2-9.5-12.1c-1.1,5.7-1.3,11.3,0.6,16.8c3,9,10.7,15.3,17,22.4c6.3,7.1,11.4,16.9,7.9,25.7 c-4.4,10.7-19.3,13.7-24.1,24.1c26.8,0.7,52.8-6.5,55.8-37.6C270.4,158.1,266.8,147.1,258.6,141.2z" fill="url(#SVGID_2_)"/><linearGradient id="SVGID_4_" gradientUnits="userSpaceOnUse" x1="85.726" y1="8.819" x2="128.849" y2="147.674"><stop offset="0" stop-color="#fff"/><stop offset="1" stop-color="#383938"/></linearGradient><path d="M179.6,59.2c-23-15.2-56.9-18.9-81.5-16.4c-27.5,2.8-68.4,15.5-63.5,51.3 c0.8,5.6,2.9,10.8,4.4,16.2c0.2,0.7,4.5,2.5,6,3.3c8.5,4.3,22.1,12.8,32.6,19.8c9.9,6.6,20.6,12.8,32.6,14.2 c22.2,2.5,40.5-12.9,50.1-31.7c5.2-10.2,8.1-21.3,10.5-32.4C171.3,81.2,176,56.9,179.6,59.2z" fill="url(#SVGID_4_)"/><defs><path id="SVGID_53_" d="M179.6,59.2c-23-15.2-56.9-18.9-81.5-16.4c-27.5,2.8-68.4,15.5-63.5,51.3c0.8,5.6,2.9,10.8,4.4,16.2 c0.2,0.7,4.5,2.5,6,3.3c8.5,4.3,22.1,12.8,32.6,19.8c9.9,6.6,20.6,12.8,32.6,14.2c22.2,2.5,40.5-12.9,50.1-31.7 c5.2-10.2,8.1-21.3,10.5-32.4C171.3,81.2,176,56.9,179.6,59.2z"/></defs><clipPath id="SVGID_6_"><use xlink:href="#SVGID_53_" overflow="visible"/></clipPath><path d="M89.7,53c-1.1,0-1.9-0.9-1.9-1.9l0-20.1c0-1.1,0.9-1.9,1.9-1.9h34.8 c1.1,0,1.9,0.9,1.9,1.9l0,20.1c0,1.1-0.9,1.9-1.9,1.9H89.7z" clip-path="url(#SVGID_6_)" fill="#c9d9df"/><path class="st15" d="M215.7,193.1c-1.8-4.7,3.5-9.6,1.9-17c-2.5-11.5-13.8-12.8-7.1-21.5c4.6-5.9,7.2-16.5,0.4-22.3 c-5.3-4.6-13.5-1.3-22-5c-5.8-2.5-12.8-1.9-19,2.6c-8.2,6.1-14.4,25.1-8,35.2c4,6.4,6.7,14.4,11.9,20c8.4,9-6.2,20.6,23.1,23.4 h55.6l-5.5-10.2C246.9,198.3,221.5,208.4,215.7,193.1z"/><path class="st47" d="M173.1,209.6l38.4,0.5l9-6.7c0,0-7.3,0.4-16.1-0.9c-7.7-1.1-11.3-1.4-18-1.1c0,0-0.3-25.3-2.6-28.1 c-2.4-2.8-10.5,25.8-10.5,25.8L173.1,209.6z"/><path class="st53" d="M186.5,209.1c0-1.9,0-5.3,0-9.2c-0.1-5.4-0.6-24.2-2.6-26.6c-0.1-0.1-0.2-0.2-0.4-0.2 c-1.8,2.8-4.1,8.1-6.2,13.4c-2.1,6.4-3.9,12.6-3.9,12.6l-0.3,10.5l13.3,0.2C186.4,209.5,186.5,209.3,186.5,209.1z"/><path class="st25" d="M168.5,169.8c0.2-0.2,5.9-2.6,8.3-6.8c1.2-2.2,1.6-5,1.7-6.7c0-0.1,0-0.1,0-0.2c-1.9-2.3-3.7-6.6-2.2-8.1 c1.4-1.4,4.3,1,5.1,1.7c2.8-1.8,6.9-4.3,9.3-5.2c6.1-2.2,13.3-2.7,13.3-2.7s0.3,23.8-9,29.6c0,0-3.1-0.4-6.8-2.8 c-2.8,3.9-7.7,10.8-7.7,11.6c0,0.3-2.5-0.2-4.2-0.8C171.5,177.9,168.2,170,168.5,169.8z"/><path class="st38" d="M176.9,179.8c-0.2-0.1-0.5-0.2-0.7-0.2c-4.7-1.7-8-9.5-7.7-9.8c0.2-0.2,5.9-2.6,8.3-6.8 c1.2-2.2,1.6-5,1.7-6.7c0-0.1,0-0.1,0-0.2c-1.9-2.3-3.7-6.6-2.2-8.1c1.4-1.4,4.3,1,5.1,1.7c2.8-1.8,6.9-4.3,9.3-5.2 c6.1-2.2,13.3-2.7,13.3-2.7s0,0.5,0,1.4c-3,0.7-16,3.8-20.2,8.4c-4.6,5,6.2,18,12.4,18.9c-0.4,0.4-0.8,0.7-1.3,1 c0,0-3.1-0.4-6.8-2.8c-0.2,0.3-0.4,0.6-0.6,0.9c-3.6,0.3-5.3,1.3-6.4,2.6C179.3,174.1,179.1,174.3,176.9,179.8z"/><g class="st27"><linearGradient id="SVGID_8_" gradientUnits="userSpaceOnUse" x1="168.457" y1="161.173" x2="203.932" y2="161.173"><stop offset="0" stop-color="#808181"/><stop offset="1" stop-color="#d6d7d7"/></linearGradient><path d="M168.5,169.8c0.2-0.2,5.9-2.6,8.3-6.8c1.2-2.2,1.6-5,1.7-6.7c0-0.1,0-0.1,0-0.2 c-1.9-2.3-3.7-6.6-2.2-8.1c1.4-1.4,4.3,1,5.1,1.7c2.8-1.8,6.9-4.3,9.3-5.2c6.1-2.2,13.3-2.7,13.3-2.7s0.3,23.8-9,29.6 c0,0-3.1-0.4-6.8-2.8c-2.8,3.9-7.7,10.8-7.7,11.6c0,0.3-2.5-0.2-4.2-0.8C171.5,177.9,168.2,170,168.5,169.8z" fill="url(#SVGID_8_)"/><linearGradient id="SVGID_9_" gradientUnits="userSpaceOnUse" x1="168.457" y1="160.831" x2="203.933" y2="160.831"><stop offset="0" stop-color="#808181"/><stop offset="1" stop-color="#d6d7d7"/></linearGradient><path d="M176.9,179.8c-0.2-0.1-0.5-0.2-0.7-0.2c-4.7-1.7-8-9.5-7.7-9.8c0.2-0.2,5.9-2.6,8.3-6.8 c1.2-2.2,1.6-5,1.7-6.7c0-0.1,0-0.1,0-0.2c-1.9-2.3-3.7-6.6-2.2-8.1c1.4-1.4,4.3,1,5.1,1.7c2.8-1.8,6.9-4.3,9.3-5.2 c6.1-2.2,13.3-2.7,13.3-2.7s0,0.5,0,1.4c-3,0.7-16,3.8-20.2,8.4c-4.6,5,6.2,18,12.4,18.9c-0.4,0.4-0.8,0.7-1.3,1 c0,0-3.1-0.4-6.8-2.8c-0.2,0.3-0.4,0.6-0.6,0.9c-3.6,0.3-5.3,1.3-6.4,2.6C179.3,174.1,179.1,174.3,176.9,179.8z" fill="url(#SVGID_9_)"/></g><path class="st46" d="M85.2,46.9c-1.1,0-1.9-0.9-1.9-1.9V24.8c0-1.1,0.9-1.9,1.9-1.9H120c1.1,0,1.9,0.9,1.9,1.9v20.1 c0,1.1-0.9,1.9-1.9,1.9H85.2z"/><path class="st15" d="M120,45.5H85.3c-0.4,0-0.7-0.3-0.7-0.7V25c0-0.4,0.3-0.7,0.7-0.7H120c0.4,0,0.7,0.3,0.7,0.7v19.8 C120.7,45.2,120.4,45.5,120,45.5z M86,44h33.2V25.7H86V44z"/><path class="st15" d="M102.6,39.3c-0.2,0-0.3-0.1-0.5-0.2L85,25.8c-0.3-0.2-0.4-0.7-0.1-1c0.2-0.3,0.7-0.4,1-0.1l16.7,13 l16.6-12.9c0.3-0.3,0.8-0.2,1,0.1c0.3,0.3,0.2,0.8-0.1,1l-17,13.3C102.9,39.2,102.8,39.3,102.6,39.3z"/><path class="st15" d="M85.5,45.2c-0.2,0-0.4-0.1-0.6-0.3c-0.3-0.3-0.2-0.8,0.1-1l11.7-10.1c0.3-0.3,0.8-0.2,1,0.1 c0.3,0.3,0.2,0.8-0.1,1L86,45C85.9,45.1,85.7,45.2,85.5,45.2z"/><path class="st15" d="M119.7,45.2c-0.2,0-0.3-0.1-0.5-0.2l-11.8-10c-0.3-0.3-0.3-0.7-0.1-1c0.3-0.3,0.7-0.3,1-0.1l11.8,10 c0.3,0.3,0.4,0.7,0.1,1C120.1,45.1,119.9,45.2,119.7,45.2z"/><path class="st25" d="M32.2,116.3c0,0,1.9-2,0.3-7c-1.6-5-8.6-27.3-7.2-28.1c1.3-0.8,14,17.1,14.6,21.1c0.6,4,1.1,16.4,0.5,16.4 C39.8,118.8,32.2,116.3,32.2,116.3z"/><path class="st38" d="M39.9,102.4c0.6,4,1.1,16.4,0.5,16.4c-0.6,0-8.2-2.5-8.2-2.5s1.4-1.5,0.7-5.2c1.8,0.9,5.1-0.2,5.1-0.2 s0-9-2.9-17.6C37.6,97.2,39.7,100.8,39.9,102.4z"/><path class="st37" d="M30.1,93.3c-1.8-6.1-10.5-22.6-8.2-24c4.6-2.7,18.9,21.3,22.2,28.1c1.4,2.8-0.6,12.1-5.5,12.5 C32.8,110.5,31.5,98.3,30.1,93.3z"/><g class="st27"><linearGradient id="SVGID_10_" gradientUnits="userSpaceOnUse" x1="857.718" y1="5025.61" x2="888.261" y2="5025.61" gradientTransform="scale(1 -1) rotate(19.111 15678.263 -38.563)"><stop offset="0" stop-color="#d6d7d7"/><stop offset="1" stop-color="#808181"/></linearGradient><path d="M32.2,116.3c0,0,1.9-2,0.3-7c-1.6-5-8.6-27.3-7.2-28.1c1.3-0.8,14,17.1,14.6,21.1c0.6,4,1.1,16.4,0.5,16.4 C39.8,118.8,32.2,116.3,32.2,116.3z" fill="url(#SVGID_10_)"/><linearGradient id="SVGID_11_" gradientUnits="userSpaceOnUse" x1="857.718" y1="5018.239" x2="888.261" y2="5018.239" gradientTransform="scale(1 -1) rotate(19.111 15678.263 -38.563)"><stop offset="0" stop-color="#d6d7d7"/><stop offset="1" stop-color="#808181"/></linearGradient><path d="M39.9,102.4c0.6,4,1.1,16.4,0.5,16.4c-0.6,0-8.2-2.5-8.2-2.5s1.4-1.5,0.7-5.2c1.8,0.9,5.1-0.2,5.1-0.2 s0-9-2.9-17.6C37.6,97.2,39.7,100.8,39.9,102.4z" fill="url(#SVGID_11_)"/><linearGradient id="SVGID_12_" gradientUnits="userSpaceOnUse" x1="857.716" y1="5036.2" x2="888.261" y2="5036.2" gradientTransform="scale(1 -1) rotate(19.111 15678.263 -38.563)"><stop offset="0" stop-color="#d6d7d7"/><stop offset="1" stop-color="#808181"/></linearGradient><path d="M30.1,93.3c-1.8-6.1-10.5-22.6-8.2-24c4.6-2.7,18.9,21.3,22.2,28.1c1.4,2.8-0.6,12.1-5.5,12.5 C32.8,110.5,31.5,98.3,30.1,93.3z" fill="url(#SVGID_12_)"/></g><path class="st37" d="M29.6,113l12,3c0,0,14,51.8,2.3,65.8c0,0,30.6-22.4,53.5-14c22.9,8.5,22.2,29.2,8.1,36.7 c-12.4,6.6-48.9,5.6-65.6,4.3c-16.7-1.3-16.5-1.7-16.5-5.8C23.5,198.7,29.6,113,29.6,113z"/><path class="st37" d="M49.6,94.4c0,0,2.5-25.3,5.2-25.6c5.3-0.5,8.4,27.2,8.7,34.7c0.1,3.1-6.4,12.7-11,11.1 C47,112.7,49.6,94.4,49.6,94.4z"/><path class="st25" d="M44.9,115.9c0,0,2.6-1,3.1-6.3c0.6-5.3,3.5-28.4,5-28.6c1.5-0.1,5.7,21.4,4.6,25.3 c-1.1,3.9-5.8,15.4-6.3,15.2C50.8,121.2,44.9,115.9,44.9,115.9z"/><path class="st38" d="M57.7,106.3c-1.1,3.9-5.8,15.4-6.3,15.2c-0.5-0.2-6.4-5.6-6.4-5.6s1.9-0.8,2.8-4.4c1.2,1.5,4.7,2,4.7,2 s3.7-8.2,4.6-17.2C57.8,100.7,58.1,104.8,57.7,106.3z"/><g class="st27"><linearGradient id="SVGID_13_" gradientUnits="userSpaceOnUse" x1="19.611" y1="1928.386" x2="50.152" y2="1928.386" gradientTransform="scale(1 -1) rotate(-5.221 -22108.673 740.4)"><stop offset="0" stop-color="#d6d7d7"/><stop offset="1" stop-color="#808181"/></linearGradient><path d="M49.6,94.4c0,0,2.5-25.3,5.2-25.6c5.3-0.5,8.4,27.2,8.7,34.7c0.1,3.1-6.4,12.7-11,11.1 C47,112.7,49.6,94.4,49.6,94.4z" fill="url(#SVGID_13_)"/><linearGradient id="SVGID_14_" gradientUnits="userSpaceOnUse" x1="19.611" y1="1918.786" x2="50.153" y2="1918.786" gradientTransform="scale(1 -1) rotate(-5.221 -22108.673 740.4)"><stop offset="0" stop-color="#d6d7d7"/><stop offset="1" stop-color="#808181"/></linearGradient><path d="M44.9,115.9c0,0,2.6-1,3.1-6.3c0.6-5.3,3.5-28.4,5-28.6c1.5-0.1,5.7,21.4,4.6,25.3 c-1.1,3.9-5.8,15.4-6.3,15.2C50.8,121.2,44.9,115.9,44.9,115.9z" fill="url(#SVGID_14_)"/><linearGradient id="SVGID_15_" gradientUnits="userSpaceOnUse" x1="19.611" y1="1911.416" x2="50.153" y2="1911.416" gradientTransform="scale(1 -1) rotate(-5.221 -22108.673 740.4)"><stop offset="0" stop-color="#d6d7d7"/><stop offset="1" stop-color="#808181"/></linearGradient><path d="M57.7,106.3c-1.1,3.9-5.8,15.4-6.3,15.2c-0.5-0.2-6.4-5.6-6.4-5.6s1.9-0.8,2.8-4.4c1.2,1.5,4.7,2,4.7,2 s3.7-8.2,4.6-17.2C57.8,100.7,58.1,104.8,57.7,106.3z" fill="url(#SVGID_15_)"/></g><path class="st37" d="M43.9,115l12,3c0,0-9.9,48.4-21.6,62.4c0,0,42.3-21.6,65.2-13.2c22.9,8.5,20,34.6,6,42.1 c-12.4,6.6-56.3,0.7-73-0.6c-16.7-1.3-26.9-3.6-26.9-7.7C5.5,196.9,43.9,115,43.9,115z"/><g class="st27"><linearGradient id="SVGID_16_" gradientUnits="userSpaceOnUse" x1="-14.467" y1="163.67" x2="96.387" y2="163.67"><stop offset="0" stop-color="#808181"/><stop offset="1" stop-color="#d6d7d7"/></linearGradient><path d="M43.9,115l12,3c0,0-9.9,48.4-21.6,62.4c0,0,42.3-21.6,65.2-13.2c22.9,8.5,20,34.6,6,42.1 c-12.4,6.6-56.3,0.7-73-0.6c-16.7-1.3-26.9-3.6-26.9-7.7C5.5,196.9,43.9,115,43.9,115z" fill="url(#SVGID_16_)"/></g><path class="st43" d="M24.5,55c0,1.5,0.5,3,1.1,4.2c0.8,1.4,2.1,4.1,3.3,6.6c1.8,3.7,4.7,3.7,6.5,0c1.3-2.6,2.6-5.2,3.4-6.6 C39.5,58,40,56.5,40,55c0-4.5-3.5-8.1-7.7-8.1C28,46.9,24.5,50.5,24.5,55z M32.2,59.4c-2.5,0-4.6-2.1-4.6-4.8 c0-2.7,2.1-4.8,4.6-4.8c2.5,0,4.6,2.1,4.6,4.8C36.8,57.2,34.8,59.4,32.2,59.4z"/><path class="st46" d="M187.4,167.6l-10.1,1.6c-0.6,0.1-1.2-0.4-1.3-1.1l-6.2-17.5c-0.1-0.7,0.2-1.4,0.8-1.5l9.9-2.1 c0.6-0.1,1.2,0.4,1.3,1.1l6.3,17.9C188.3,166.8,187.9,167.5,187.4,167.6z"/><path d="M179.8,148.2l-9.2,1.9c-0.6,0.1-0.9,0.8-0.8,1.5l6.2,17.5c0.1,0.6,0.6,1.1,1.2,1.1l9.3-1.5 c0.6-0.1,0.9-0.8,0.8-1.5l-6.3-17.9C180.8,148.7,180.3,148.2,179.8,148.2z" fill="#fef6f7"/><path class="st25" d="M171.6,180.4l0-13.6c0,0-3.5-6.4-0.3-11.2l1.8,5.3c0,0,6.1-3.3,8.7-8.6c0.5-1.1,3.1,3,4.3,6.9 c1.1,3.5-1.2,4.9-5.5,8.6c-0.5,0.4,0.1,6.4,0.1,6.4S174.8,178.3,171.6,180.4z"/><path class="st38" d="M179.5,173.6c-1.4-4.7,0.7-5.3,1.1-5.8c0.2-0.3,0.7-0.5,0.9-0.8c-4.6,0.5-4.4-6.4-0.6-13.2 c-2.9,4.5-7.9,7.2-7.9,7.2l0,0l0,0l0,0l-1.8-5.3c-0.1,0.2-0.2,0.3-0.3,0.5c0,0,0,0,0,0.1c0,0,0,0.1-0.1,0.1 c-0.1,0.1-0.1,0.2-0.2,0.4c0,0,0,0,0,0.1c0,0,0,0.1-0.1,0.1c-0.1,0.1-0.1,0.2-0.1,0.4c0,0.1,0,0.1-0.1,0.2 c-0.1,0.2-0.1,0.3-0.2,0.5c0,0,0,0,0,0v0c0,0.2-0.1,0.4-0.1,0.6c0,0,0,0,0,0c0,0,0,0.1,0,0.1c0,0.1,0,0.3-0.1,0.4 c0,0.1,0,0.1,0,0.2c0,0.1,0,0.3,0,0.4c0,0,0,0,0,0.1c0,0,0,0.1,0,0.1c0,0.2,0,0.4,0,0.5c0,3.4,1.6,6.5,1.6,6.5l0,11.8 c2-1.4,4-2.9,6.1-4.5C178.2,173.8,179,174,179.5,173.6z"/><path class="st38" d="M181.7,152.6c0.1-0.1,0.1-0.2,0.2-0.3c0,0,0,0-0.1,0.1C181.8,152.5,181.8,152.5,181.7,152.6z"/><g class="st27"><linearGradient id="SVGID_17_" gradientUnits="userSpaceOnUse" x1="13231.747" y1="-4005.681" x2="13256.99" y2="-4005.681" gradientTransform="scale(-1 1) rotate(35.373 -5.243 -22963.28)"><stop offset="0" stop-color="#d6d7d7"/><stop offset="1" stop-color="#808181"/></linearGradient><path d="M171.6,180.4l0-13.6c0,0-3.5-6.4-0.3-11.2l1.8,5.3c0,0,6.1-3.3,8.7-8.6c0.5-1.1,3.1,3,4.3,6.9 c1.1,3.5-1.2,4.9-5.5,8.6c-0.5,0.4,0.1,6.4,0.1,6.4S174.8,178.3,171.6,180.4z" fill="url(#SVGID_17_)"/><linearGradient id="SVGID_18_" gradientUnits="userSpaceOnUse" x1="13231.747" y1="-4006.264" x2="13256.993" y2="-4006.264" gradientTransform="scale(-1 1) rotate(35.373 -5.243 -22963.28)"><stop offset="0" stop-color="#d6d7d7"/><stop offset="1" stop-color="#808181"/></linearGradient><path d="M179.5,173.6c-1.4-4.7,0.7-5.3,1.1-5.8c0.2-0.3,0.7-0.5,0.9-0.8c-4.6,0.5-4.4-6.4-0.6-13.2 c-2.9,4.5-7.9,7.2-7.9,7.2l0,0l0,0l0,0l-1.8-5.3c-0.1,0.2-0.2,0.3-0.3,0.5c0,0,0,0,0,0.1c0,0,0,0.1-0.1,0.1 c-0.1,0.1-0.1,0.2-0.2,0.4c0,0,0,0,0,0.1c0,0,0,0.1-0.1,0.1c-0.1,0.1-0.1,0.2-0.1,0.4c0,0.1,0,0.1-0.1,0.2 c-0.1,0.2-0.1,0.3-0.2,0.5c0,0,0,0,0,0v0c0,0.2-0.1,0.4-0.1,0.6c0,0,0,0,0,0c0,0,0,0.1,0,0.1c0,0.1,0,0.3-0.1,0.4 c0,0.1,0,0.1,0,0.2c0,0.1,0,0.3,0,0.4c0,0,0,0,0,0.1c0,0,0,0.1,0,0.1c0,0.2,0,0.4,0,0.5c0,3.4,1.6,6.5,1.6,6.5l0,11.8 c2-1.4,4-2.9,6.1-4.5C178.2,173.8,179,174,179.5,173.6z" fill="url(#SVGID_18_)"/><linearGradient id="SVGID_19_" gradientUnits="userSpaceOnUse" x1="13231.755" y1="-4012.511" x2="13256.737" y2="-4012.511" gradientTransform="scale(-1 1) rotate(35.373 -5.243 -22963.28)"><stop offset="0" stop-color="#d6d7d7"/><stop offset="1" stop-color="#808181"/></linearGradient><path d="M181.7,152.6c0.1-0.1,0.1-0.2,0.2-0.3c0,0,0,0-0.1,0.1C181.8,152.5,181.8,152.5,181.7,152.6z" fill="url(#SVGID_19_)"/></g><ellipse transform="rotate(-25.763 176.204 152.507)" class="st46" cx="176.2" cy="152.5" rx=".9" ry="1.1"/><path class="st46" d="M274.5 177.8L230.4 177.8 210 210.7 254.1 210.7z"/><path class="st109" d="M169.9 208.4L212.4 208.4 215.4 212.6 172.9 212.6z"/><path class="st47" d="M276.9 177.8L232.8 177.8 212.4 210.7 256.4 210.7z"/><ellipse class="st46" cx="246.5" cy="192.1" rx="5.5" ry="2.7"/><path class="st42" d="M171.7,170.5l-0.1-3.4c0,0-8.9-5.6-13.2-1.8c-10.7,9.5-1.2,28.6,7.7,43.3c4.4,7.1,8,9.3,12.5,8.7 c13.1-1.7,1.9-46.4,1.9-46.4s-0.5,0.5-4.1,0.5C172.9,171.3,171.7,170.5,171.7,170.5z"/><path class="st53" d="M172.8,201.7c-1.2-11-0.9-28.5-0.9-31.1c-0.2-0.1-0.2-0.1-0.2-0.1l-0.1-3.4c0,0-5.8-3.6-10.3-3 C168.6,172.2,172.8,201.7,172.8,201.7z"/><circle class="st15" cx="264.9" cy="147.3" r="2"/><ellipse class="st15" cx="276" cy="147.3" rx="2" ry="2"/><circle class="st15" cx="254" cy="147.3" r="2"/><path class="st109" d="M279.7,179.9c1-1.6-0.5-5.9-2.4-5.9h-42.4c-1.9,0-4.2,1.3-5.2,2.9l-19.2,31c-1,1.6-0.3,2.9,1.6,2.9h42.4 c1.9,0,4.2-1.3,5.2-2.9L279.7,179.9z"/><path d="M279.3,180.6c1.7-2.7,0.4-4.8-2.7-4.8h-37.9c-3.1,0-7,2.2-8.7,4.8l-16.8,27.1c-1.7,2.7-0.4,4.8,2.7,4.8h37.9 c3.1,0,7-2.2,8.7-4.8L279.3,180.6z" fill="#929dba"/><circle class="st43" cx="267" cy="130.4" r="3.4"/><ellipse class="st15" cx="267" cy="130.4" rx="1.5" ry="1.5"/><circle class="st43" cx="229" cy="82.4" r="3.4"/><circle class="st15" cx="229" cy="82.4" r="1.5"/><path class="st43" d="M177.7,44.5c0,1.9-1.5,3.4-3.4,3.4c-1.9,0-3.4-1.5-3.4-3.4c0-1.9,1.5-3.4,3.4-3.4 C176.2,41.1,177.7,42.6,177.7,44.5z"/><circle class="st15" cx="174.3" cy="44.5" r="1.5"/><circle class="st43" cx="36.4" cy="39.5" r="3.4"/><ellipse class="st15" cx="36.4" cy="39.5" rx="1.5" ry="1.5"/><path class="st43" d="M101.6,0c-4.1,0-7.4,3.3-7.4,7.4s3.3,7.4,7.4,7.4c4.1,0,7.4-3.3,7.4-7.4S105.7,0,101.6,0z M101.6,12.1 c-2.6,0-4.7-2.1-4.7-4.7s2.1-4.7,4.7-4.7s4.7,2.1,4.7,4.7S104.2,12.1,101.6,12.1z"/><path class="st42" d="M142.8,98.4H70.6c-0.4,0-0.7-0.3-0.7-0.7V73.6c0-0.4,0.3-0.7,0.7-0.7h72.1c0.4,0,0.7,0.3,0.7,0.7v24.1 C143.5,98.1,143.2,98.4,142.8,98.4z"/><path class="st43" d="M162.3,134.5h-61.2c-0.4,0-0.7-0.3-0.7-0.7v-20.3c0-0.4,0.3-0.7,0.7-0.7h61.2c0.4,0,0.7,0.3,0.7,0.7v20.3 C163,134.2,162.7,134.5,162.3,134.5z"/><path class="st15" d="M107.2,124.3h34c0.5,0,0.8-0.4,0.8-0.9c0-0.5-0.4-0.8-0.8-0.8h-34c-0.5,0-0.8,0.4-0.8,0.8 C106.3,124,106.7,124.3,107.2,124.3z"/><path class="st15" d="M107.2,118.6h40.1c0.5,0,0.9-0.4,0.9-0.8c0-0.5-0.4-0.9-0.9-0.9h-40.1c-0.5,0-0.8,0.4-0.8,0.9 C106.3,118.2,106.7,118.6,107.2,118.6z"/><path class="st15" d="M107.2,130.4h27.4c0.5,0,0.9-0.4,0.9-0.9c0-0.5-0.4-0.8-0.9-0.8h-27.4c-0.5,0-0.8,0.4-0.8,0.8 C106.3,130,106.7,130.4,107.2,130.4z"/><path class="st15" d="M121.3,86.4H81.4c-0.6,0-1-0.4-1-1c0-0.6,0.4-1,1-1h39.9c0.6,0,1,0.4,1,1C122.3,86,121.9,86.4,121.3,86.4z"/><path class="st15" d="M128.5,79.7H81.4c-0.6,0-1-0.4-1-1c0-0.6,0.4-1,1-1h47.1c0.6,0,1,0.4,1,1C129.5,79.2,129.1,79.7,128.5,79.7 z"/><path class="st15" d="M113.5,93.6H81.4c-0.6,0-1-0.4-1-1c0-0.6,0.4-1,1-1h32.1c0.6,0,1,0.4,1,1C114.5,93.1,114.1,93.6,113.5,93.6 z"/><path class="st43" d="M190.2,77c-4.4,0-8-3.6-8-8V50.1c0-4.4,3.6-8,8-8h28.2c4.4,0,8,3.6,8,8V69c0,4.4-3.6,8-8,8H190.2z"/><path d="M222.3,74.4h-36c-0.8,0-1.5-0.7-1.5-1.5V46.2c0-0.8,0.7-1.5,1.5-1.5h36c0.8,0,1.5,0.7,1.5,1.5v26.7 C223.8,73.7,223.1,74.4,222.3,74.4z" fill="#fdd69a"/><path class="st15" d="M217.5,75.3h-26.3c-4,0-7.3-3.3-7.3-7.3V51c0-4,3.3-7.3,7.3-7.3h26.3c4,0,7.3,3.3,7.3,7.3v17 C224.7,72.1,221.5,75.3,217.5,75.3z M191.1,45.6c-3,0-5.4,2.4-5.4,5.4v17c0,3,2.4,5.4,5.4,5.4h26.3c3,0,5.4-2.4,5.4-5.4V51 c0-3-2.4-5.4-5.4-5.4H191.1z"/><path class="st15" d="M222.5,64l-4.4-2.3c-1.2-0.6-3.3-0.8-4.7-0.3l-3.8,1.3c-1.3,0.5-3.4,0.2-4.6-0.5l-6.1-3.6 c-1.2-0.7-3.2-0.7-4.4,0l-10,5.7c-0.1,0.1-0.2,1.8-0.2,3.8c1,1.4,1.5,3.2,1.7,4.9c0.3,0.2,0.5,0.4,0.7,0.6 c11.6,0.2,23,0.1,34.7,0.1c1.5-2.3,1.6-4.8,3.3-6.4C224.5,65.9,223.6,64.6,222.5,64z"/><circle class="st15" cx="213.4" cy="53.4" r="2.9"/></svg>