<svg xmlns="http://www.w3.org/2000/svg" xmlns:xlink="http://www.w3.org/1999/xlink" viewBox="0 0 93.19 71.48"><defs><style>.cls-1{fill:none;}.cls-2{isolation:isolate;}.cls-3{fill:#e2e5f6;}.cls-28,.cls-4,.cls-5{mix-blend-mode:soft-light;}.cls-4{fill:url(#Áåçûìÿííûé_ãðàäèåíò_58);}.cls-5{fill:url(#Áåçûìÿííûé_ãðàäèåíò_60);}.cls-6{fill:#82b9ff;}.cls-7{fill:#fff;}.cls-8{clip-path:url(#clip-path);}.cls-9{fill:#69f;}.cls-10{fill:#6c7996;}.cls-11{fill:#b7e5d5;opacity:0.38;mix-blend-mode:luminosity;}.cls-12{fill:#f76e6d;}.cls-13{fill:#ffb7a6;}.cls-14{fill:#f4907d;}.cls-15{opacity:0.72;mix-blend-mode:overlay;}.cls-16{fill:url(#Áåçûìÿííûé_ãðàäèåíò_20);}.cls-17{fill:url(#Áåçûìÿííûé_ãðàäèåíò_20-2);}.cls-18{fill:#ff7d7d;}.cls-19{fill:#f4af9f;}.cls-20{fill:url(#Áåçûìÿííûé_ãðàäèåíò_19);}.cls-21{fill:url(#Áåçûìÿííûé_ãðàäèåíò_19-4);}.cls-22{fill:#ffd9df;}.cls-23{fill:#fff6f7;}.cls-24{fill:url(#Áåçûìÿííûé_ãðàäèåíò_19-5);}.cls-25{fill:url(#Áåçûìÿííûé_ãðàäèåíò_19-6);}.cls-26{fill:url(#Áåçûìÿííûé_ãðàäèåíò_20-3);}.cls-27{fill:url(#Áåçûìÿííûé_ãðàäèåíò_20-4);}.cls-29{fill:gray;}.cls-30{fill:#edeef9;}</style><linearGradient id="Áåçûìÿííûé_ãðàäèåíò_58" x1="9.63" y1="39.29" x2="50.39" y2="39.29" gradientUnits="userSpaceOnUse"><stop offset="0" stop-color="gray"/><stop offset="1" stop-color="#fffcfe"/></linearGradient><linearGradient id="Áåçûìÿííûé_ãðàäèåíò_60" x1="130.89" y1="35.3" x2="67.59" y2="35.67" gradientUnits="userSpaceOnUse"><stop offset="0" stop-color="gray"/><stop offset="1" stop-color="#ffebfb"/></linearGradient><clipPath id="clip-path"><path class="cls-1" d="M15.89,52.49c0,6.88-5.15,18,20.61,18.91,16,.56,25.54-2.12,30.4-3.95,12.69-4.77,29.16-17.52,24.9-41.34S54.93,1.08,46,13.86c-3.49,5-8.66,4.12-15.64,4.12-8.48,0-20,3.09-20.67,12.71A24.93,24.93,0,0,0,12.26,42.1C13.84,45,15.87,49.74,15.89,52.49Z"/></clipPath><linearGradient id="Áåçûìÿííûé_ãðàäèåíò_20" x1="52.55" y1="51.37" x2="69.19" y2="51.37" gradientTransform="matrix(1, 0.05, -0.05, 1, 3.42, -19.4)" gradientUnits="userSpaceOnUse"><stop offset="0" stop-color="gray"/><stop offset="1" stop-color="#d6d6d6"/></linearGradient><linearGradient id="Áåçûìÿííûé_ãðàäèåíò_20-2" x1="52.55" y1="51.21" x2="69.19" y2="51.21" xlink:href="#Áåçûìÿííûé_ãðàäèåíò_20"/><linearGradient id="Áåçûìÿííûé_ãðàäèåíò_19" x1="32.26" y1="43.5" x2="47.9" y2="43.5" gradientUnits="userSpaceOnUse"><stop offset="0" stop-color="#d6d6d6"/><stop offset="1" stop-color="gray"/></linearGradient><linearGradient id="Áåçûìÿííûé_ãðàäèåíò_19-4" x1="32.26" y1="43.5" x2="47.9" y2="43.5" xlink:href="#Áåçûìÿííûé_ãðàäèåíò_19"/><linearGradient id="Áåçûìÿííûé_ãðàäèåíò_19-5" x1="28.25" y1="66.18" x2="43.06" y2="66.18" xlink:href="#Áåçûìÿííûé_ãðàäèåíò_19"/><linearGradient id="Áåçûìÿííûé_ãðàäèåíò_19-6" x1="28.25" y1="66.18" x2="43.06" y2="66.18" xlink:href="#Áåçûìÿííûé_ãðàäèåíò_19"/><linearGradient id="Áåçûìÿííûé_ãðàäèåíò_20-3" x1="63.61" y1="53.06" x2="79.59" y2="53.06" gradientTransform="matrix(1, 0, 0, 1, 0, 0)" xlink:href="#Áåçûìÿííûé_ãðàäèåíò_20"/><linearGradient id="Áåçûìÿííûé_ãðàäèåíò_20-4" x1="63.61" y1="53.2" x2="79.59" y2="53.2" gradientTransform="matrix(1, 0, 0, 1, 0, 0)" xlink:href="#Áåçûìÿííûé_ãðàäèåíò_20"/></defs><title>offer6</title><g class="cls-2"><g id="Layer_2" data-name="Layer 2"><g id="Layer_1-2" data-name="Layer 1"><path class="cls-3" d="M15.89,52.49c0,6.88-5.15,18,20.61,18.91,16,.56,25.54-2.12,30.4-3.95,12.69-4.77,29.16-17.52,24.9-41.34S54.93,1.08,46,13.86c-3.49,5-8.66,4.12-15.64,4.12-8.48,0-20,3.09-20.67,12.71A24.93,24.93,0,0,0,12.26,42.1C13.84,45,15.87,49.74,15.89,52.49Z"/><path class="cls-4" d="M48.81,23.66a10.86,10.86,0,0,0,1.4-7.76,48.1,48.1,0,0,1-.93-5.34A14.29,14.29,0,0,0,46,13.86c-3.49,5-8.66,4.12-15.64,4.12-8.48,0-20,3.09-20.67,12.71A24.93,24.93,0,0,0,12.26,42.1c1.58,2.9,3.61,7.64,3.62,10.39,0,4.74-2.43,11.49,4.46,15.53,1.79-2.35,3-6.37,4-6.91a.32.32,0,0,0,.07-.5c-.4-.47,1.85-8.33,1.45-8.8a.27.27,0,0,0-.25-.09c-4.43-3.9-9.47-8.77-8.27-15.21a7.23,7.23,0,0,1,5.51-6c3.33-.77,6.91.13,10.28.14C39.1,30.7,45.48,29,48.81,23.66Z"/><path class="cls-5" d="M92.48,26.33c-1.54-8.63-4.26-14.5-11.39-17.61a28.06,28.06,0,0,1-.24,7.54c-1,5.11-6.35,7.63-10.09,10.52a15.16,15.16,0,0,0-4.85,5.61,12.74,12.74,0,0,0-.76,7.74c.88,4.28,9.19,16.6,14.19,22.33C88.5,55.91,95.49,43.15,92.48,26.33Z"/><path class="cls-6" d="M79.37,36.25h6.57a2.72,2.72,0,0,0,2.71-2.71h0a2.72,2.72,0,0,0-2.71-2.71H79.37a2.72,2.72,0,0,0-2.71,2.71h0A2.72,2.72,0,0,0,79.37,36.25Z"/><path class="cls-6" d="M78.58,33v5.5l2.66-2.85S78.49,33,78.58,33Z"/><circle class="cls-7" cx="82.64" cy="33.54" r="0.49"/><circle class="cls-7" cx="85.41" cy="33.54" r="0.49"/><circle class="cls-7" cx="79.9" cy="33.54" r="0.49"/><g class="cls-8"><path class="cls-7" d="M56.08,17.36c-5.26.47-4.3,4.8-4.3,4.8-1.55.7-1.6,3.47-1.15,6C41.8,22,31.29,29.86,30.18,31.86s.85,6-.49,8.83c-.53,1.11-8.29,7.94-11.6,18.22-.65,2.27-1.29,6.25,1.27,8.47,3,2.16,8.21,3.7,17.13,4a109.72,109.72,0,0,0,13.65-.35L47.89,52.69a14.14,14.14,0,0,0,5.39-5.86,20.2,20.2,0,0,0,2-10.61v0l.3-3.75s-2.94-2.87-1.36-4.25,3.14,2.22,3.14,2.22.71.24,1,0l.1-4.25a2.45,2.45,0,0,0,2.51-2.38s7.15.73,8.84-.14c0,0,.05.31.12.78,2.5-2.24,2.66-7.86,2.66-7.86C69.6,18.27,61.33,16.89,56.08,17.36Z"/><path class="cls-9" d="M84.22,55.5c-1.25-2.61-2.64-5.36-3.78-7.76-2.89-6.11-16-6.22-16-6.22l-9.56.69L41.74,52.74l3.13,12.5,1.32,1.21c2.7-1.06,5.42,1.65,7.71,3.86,8-.69,12.33-1.08,15-2.5C70.82,66.75,81.49,64.3,84.22,55.5Z"/><path class="cls-10" d="M79.09,48.53l-6.87.71v-7a1.28,1.28,0,0,1,1.12-1.27l4.76-.61a1.09,1.09,0,0,1,1.23,1.22Z"/><path class="cls-11" d="M79,49.52l.46-8.22a.67.67,0,0,0-.74-.57l-5.35.7a.66.66,0,0,0-.42.7l-.17,11.28a.66.66,0,0,0,.74.57l1.15-.15A46.28,46.28,0,0,0,79,49.52Z"/><path class="cls-12" d="M47.31,52.43l1.22,6,8.77,8.4L58,70a57.29,57.29,0,0,0,6.58-1.56C60.56,53.06,47.31,52.43,47.31,52.43Z"/><path class="cls-13" d="M69.9,29.76c.48-1.15.17-4,0-5.35-.07-.48-.12-.78-.12-.78-1.69.86-8.84.14-8.84.14a2.45,2.45,0,0,1-2.51,2.38l-.1,4.25c-.25.25-1,0-1,0s-1.55-3.6-3.14-2.22,1.36,4.25,1.36,4.25l-.3,3.75-.47,6.28c1.41,5.33,9.64,3.92,9.89,1.89,0-.25.2-3.35.2-3.35C72.67,42.39,69.26,31.31,69.9,29.76Z"/><path class="cls-14" d="M65.35,41.07l.21,0h1.16l.15,0,.11,0,.15,0,.09,0,.15,0,.06,0,.16-.05h0a3.07,3.07,0,0,0,1-.63h0C54.2,41.12,60.31,27,60.31,27A2.71,2.71,0,0,0,62,24.85c4.06.5,6.48.3,7.89-.4h0l-.12-.82a3.15,3.15,0,0,1-.86.25,18,18,0,0,1-3.05.17c-.76,0-1.53,0-2.23-.08l-1.55-.1-.67-.06-.3,0-.16,0h0a2.45,2.45,0,0,1-2.51,2.38l-.1,4.25c-.16.16-.49.12-.72.07l-.12,0-.08,0h0s-1.55-3.6-3.14-2.22,1.36,4.25,1.36,4.25l-.3,3.75-.47,6.28a4.67,4.67,0,0,0,3.07,3.28,4,4,0,0,1,1.39-4.47c1.06-.78,4.11-.08,5.59.32,0-.11,0-.21,0-.29v-.25h0v0l.34.05Z"/><g class="cls-15"><path class="cls-16" d="M69.9,29.76c.48-1.15.17-4,0-5.35-.07-.48-.12-.78-.12-.78-1.69.86-8.84.14-8.84.14a2.45,2.45,0,0,1-2.51,2.38l-.1,4.25c-.25.25-1,0-1,0s-1.55-3.6-3.14-2.22,1.36,4.25,1.36,4.25l-.3,3.75-.47,6.28c1.41,5.33,9.64,3.92,9.89,1.89,0-.25.2-3.35.2-3.35C72.67,42.39,69.26,31.31,69.9,29.76Z"/><path class="cls-17" d="M65.35,41.07l.21,0h1.16l.15,0,.11,0,.15,0,.09,0,.15,0,.06,0,.16-.05h0a3.07,3.07,0,0,0,1-.63h0C54.2,41.12,60.31,27,60.31,27A2.71,2.71,0,0,0,62,24.85c4.06.5,6.48.3,7.89-.4h0l-.12-.82a3.15,3.15,0,0,1-.86.25,18,18,0,0,1-3.05.17c-.76,0-1.53,0-2.23-.08l-1.55-.1-.67-.06-.3,0-.16,0h0a2.45,2.45,0,0,1-2.51,2.38l-.1,4.25c-.16.16-.49.12-.72.07l-.12,0-.08,0h0s-1.55-3.6-3.14-2.22,1.36,4.25,1.36,4.25l-.3,3.75-.47,6.28a4.67,4.67,0,0,0,3.07,3.28,4,4,0,0,1,1.39-4.47c1.06-.78,4.11-.08,5.59.32,0-.11,0-.21,0-.29v-.25h0v0l.34.05Z"/></g><path class="cls-18" d="M24.88,69.87A50.24,50.24,0,0,0,36.49,71.4a96.09,96.09,0,0,0,25.1-2.15,38.14,38.14,0,0,0-1.73-6.37c-3.42-8-12-10.22-12-10.22l-9.3,1C36.05,53.92,27.11,56.71,24.88,69.87Z"/><path class="cls-19" d="M33.32,31.45s-1.65,2.46-.83,8.56c0,0-.14,4.2,1.18,6.38,1.94,3.21,3.41,4,4.68,4l.26,3.33s1,2.07,4.81,1.85a4.81,4.81,0,0,0,4.49-2.85,8.06,8.06,0,0,1-2.61-6.29,25.58,25.58,0,0,0,0-3.84s2.75-2.92,1.23-4.51-2.92.74-2.92.74S42.93,31.43,33.32,31.45Z"/><path class="cls-14" d="M43.4,55.54h0a4.81,4.81,0,0,0,4.49-2.85,8.06,8.06,0,0,1-2.61-6.29,37.53,37.53,0,0,0,0-3.84c.07-.08,2.72-2.94,1.23-4.5s-2.92.74-2.92.74-.7-7.36-10.32-7.34a3.13,3.13,0,0,0-.15.32c.1,0,4.88.19,6.86,2.8s4,13.56-3.35,15a2.37,2.37,0,0,0,1.66.76l.05.64A5,5,0,0,0,41,50.42S46,54.47,43.4,55.54Z"/><g class="cls-15"><path class="cls-20" d="M33.32,31.45s-1.65,2.46-.83,8.56c0,0-.14,4.2,1.18,6.38,1.94,3.21,3.41,4,4.68,4l.26,3.33s1,2.07,4.81,1.85a4.81,4.81,0,0,0,4.49-2.85,8.06,8.06,0,0,1-2.61-6.29,25.58,25.58,0,0,0,0-3.84s2.75-2.92,1.23-4.51-2.92.74-2.92.74S42.93,31.43,33.32,31.45Z"/><path class="cls-20" d="M33.32,31.45s-1.65,2.46-.83,8.56c0,0-.14,4.2,1.18,6.38,1.94,3.21,3.41,4,4.68,4l.26,3.33s1,2.07,4.81,1.85a4.81,4.81,0,0,0,4.49-2.85,8.06,8.06,0,0,1-2.61-6.29,25.58,25.58,0,0,0,0-3.84s2.75-2.92,1.23-4.51-2.92.74-2.92.74S42.93,31.43,33.32,31.45Z"/><path class="cls-20" d="M33.32,31.45s-1.65,2.46-.83,8.56c0,0-.14,4.2,1.18,6.38,1.94,3.21,3.41,4,4.68,4l.26,3.33s1,2.07,4.81,1.85a4.81,4.81,0,0,0,4.49-2.85,8.06,8.06,0,0,1-2.61-6.29,25.58,25.58,0,0,0,0-3.84s2.75-2.92,1.23-4.51-2.92.74-2.92.74S42.93,31.43,33.32,31.45Z"/><path class="cls-21" d="M43.4,55.54h0a4.81,4.81,0,0,0,4.49-2.85,8.06,8.06,0,0,1-2.61-6.29,37.53,37.53,0,0,0,0-3.84c.07-.08,2.72-2.94,1.23-4.5s-2.92.74-2.92.74-.7-7.36-10.32-7.34a3.13,3.13,0,0,0-.15.32c.1,0,4.88.19,6.86,2.8s4,13.56-3.35,15a2.37,2.37,0,0,0,1.66.76l.05.64A5,5,0,0,0,41,50.42S46,54.47,43.4,55.54Z"/></g><path class="cls-22" d="M34.21,69.07H28.35c-.32,0-.18-.71-.16-1.1l-1.29-9.41c0-.39.48-1,.94-1l5.49.21a.66.66,0,0,1,.55.74l.94,10.4C34.79,69.27,34.53,69.09,34.21,69.07Z"/><path class="cls-23" d="M32.77,58.08l-5.26-.23a.67.67,0,0,0-.62.7l1,10.33a.7.7,0,0,0,.48.74l5.26.49a.67.67,0,0,0,.62-.7l-1-10.59A.7.7,0,0,0,32.77,58.08Z"/><path class="cls-19" d="M43.06,71.44l-6.18-5.25S37,62,34.08,60.89L34.36,64s-2.87-1.16-5.75-2.69c-.58-.31-.44,2.31.25,4.44.62,1.9,1.3,2.86,4.3,3.7a12.75,12.75,0,0,1,2.26,1.87l1.07,0C38.77,71.48,41,71.49,43.06,71.44Z"/><path class="cls-14" d="M32.67,69.34l.49.15a12.75,12.75,0,0,1,2.26,1.87l1.07,0c2.28.08,4.47.09,6.57,0l-6.18-5.25S37,62,34.08,60.89L34.36,64s-2.87-1.16-5.75-2.69C28.61,61.35,37.22,66.84,32.67,69.34Z"/><g class="cls-15"><path class="cls-24" d="M43.06,71.44l-6.18-5.25S37,62,34.08,60.89L34.36,64s-2.87-1.16-5.75-2.69c-.58-.31-.44,2.31.25,4.44.62,1.9,1.3,2.86,4.3,3.7a12.75,12.75,0,0,1,2.26,1.87l1.07,0C38.77,71.48,41,71.49,43.06,71.44Z"/><path class="cls-25" d="M32.67,69.34l.49.15a12.75,12.75,0,0,1,2.26,1.87l1.07,0c2.28.08,4.47.09,6.57,0l-6.18-5.25S37,62,34.08,60.89L34.36,64s-2.87-1.16-5.75-2.69C28.61,61.35,37.22,66.84,32.67,69.34Z"/></g><path class="cls-19" d="M78.52,43.35c-3.1,2.66-6.33,4.94-6.33,4.94l.06-3.91c-3.26,2.17-2.52,7.13-2.52,7.13l-6.12,8.2A11.43,11.43,0,0,0,66.41,62a5.83,5.83,0,0,0,3.65.79s3.77-7.51,5.12-8.24c3.43-1.85,3.73-3.06,4.24-5.69S79.14,42.82,78.52,43.35Z"/><path class="cls-14" d="M78.24,43.59c-3,2.56-6.05,4.7-6.05,4.7l.06-3.91c-3.26,2.17-2.52,7.13-2.52,7.13l-6.12,8.2A11.43,11.43,0,0,0,66.41,62a5.83,5.83,0,0,0,3.65.79s3.77-7.51,5.12-8.24l.34-.18C70.56,51.36,76.65,45.1,78.24,43.59Z"/><g class="cls-15"><path class="cls-26" d="M78.52,43.35c-3.1,2.66-6.33,4.94-6.33,4.94l.06-3.91c-3.26,2.17-2.52,7.13-2.52,7.13l-6.12,8.2A11.43,11.43,0,0,0,66.41,62a5.83,5.83,0,0,0,3.65.79s3.77-7.51,5.12-8.24c3.43-1.85,3.73-3.06,4.24-5.69S79.14,42.82,78.52,43.35Z"/><path class="cls-27" d="M78.24,43.59c-3,2.56-6.05,4.7-6.05,4.7l.06-3.91c-3.26,2.17-2.52,7.13-2.52,7.13l-6.12,8.2A11.43,11.43,0,0,0,66.41,62a5.83,5.83,0,0,0,3.65.79s3.77-7.51,5.12-8.24l.34-.18C70.56,51.36,76.65,45.1,78.24,43.59Z"/></g><ellipse class="cls-22" cx="30.1" cy="59.69" rx="0.46" ry="0.59" transform="translate(-8.95 5.43) rotate(-8.98)"/><ellipse class="cls-10" cx="76.17" cy="42.56" rx="0.59" ry="0.43" transform="translate(20.35 109.62) rotate(-79.42)"/><g class="cls-28"><path class="cls-7" d="M69.9,29.76c.48-1.15.17-4,0-5.35-.07-.48-.12-.78-.12-.78-1.69.86-8.84.14-8.84.14a2.45,2.45,0,0,1-2.51,2.38l-.1,4.25c-.25.25-1,0-1,0s-1.55-3.6-3.14-2.22,1.36,4.25,1.36,4.25l-.3,3.75-.47,6.28c1.41,5.33,9.64,3.92,9.89,1.89,0-.25.2-3.35.2-3.35C72.67,42.39,69.26,31.31,69.9,29.76Z"/><path class="cls-29" d="M69,29.76c.48-1.15.17-4,0-5.35-.07-.48-.12-.78-.12-.78-1.69.86-8.84.14-8.84.14a2.45,2.45,0,0,1-2.51,2.38l-.1,4.25c-.25.25-1,0-1,0s-1.55-3.6-3.14-2.22,1.36,4.25,1.36,4.25l-.3,3.75-.47,6.28c1.41,5.33,9.64,3.92,9.89,1.89,0-.25.2-3.35.2-3.35C71.74,42.39,68.33,31.31,69,29.76Z"/></g></g><path class="cls-6" d="M8.69,41.64a.37.37,0,0,1-.29-.13L8,41.05c-.61-.73-1.21-1.45-1.8-2.19a.37.37,0,1,1,.58-.47c.59.73,1.19,1.45,1.79,2.18L9,41a.37.37,0,0,1-.29.61Z"/><path class="cls-6" d="M3.48,34.79a.37.37,0,0,1-.32-.18A20.32,20.32,0,0,1,.3,27.4,17.18,17.18,0,0,1,3.68,13.34C7,9.49,11.82,8.09,18.54,9.06a52.34,52.34,0,0,0,12.13.41c1.15-.1,2.33-.24,3.49-.42,5.19-.87,10.2-2.8,15.05-4.66,1.86-.71,3.77-1.45,5.68-2.12,7-2.4,12.93-2.88,18-1.47A20.05,20.05,0,0,1,87.44,16.85a16.86,16.86,0,0,1,0,4.59.37.37,0,0,1-.42.32.37.37,0,0,1-.32-.42,16.07,16.07,0,0,0,0-4.39,19.3,19.3,0,0,0-14-15.45C67.76.14,62,.61,55.13,3c-1.89.66-3.8,1.4-5.65,2.11-4.88,1.88-9.94,3.82-15.2,4.7-1.18.19-2.37.33-3.54.43a53.2,53.2,0,0,1-12.3-.41c-6.44-.93-11.08.39-14.19,4A16.43,16.43,0,0,0,1,27.27a19.6,19.6,0,0,0,2.77,7,.37.37,0,0,1-.32.57Z"/><path class="cls-6" d="M86.52,28.1h0a.37.37,0,0,1-.32-.42c.12-.93.23-1.87.33-2.8a.36.36,0,0,1,.41-.33.37.37,0,0,1,.33.41c-.1.94-.21,1.88-.33,2.81A.37.37,0,0,1,86.52,28.1Z"/><path class="cls-30" d="M38.23,12.47c-.61.24-4.68,1.9-2.53,3.24s9,.4,8.09-3.36C43.2,9.84,40.1,11.73,38.23,12.47Z"/><path class="cls-6" d="M24.36,51.94H12.22a5,5,0,0,1-5-5h0a5,5,0,0,1,5-5H24.36a5,5,0,0,1,5,5h0A5,5,0,0,1,24.36,51.94Z"/><path class="cls-6" d="M25.83,46V56.18l-4.91-5.26S26,46,25.83,46Z"/><circle class="cls-7" cx="18.32" cy="46.93" r="0.91"/><circle class="cls-7" cx="13.2" cy="46.93" r="0.91"/><circle class="cls-7" cx="23.38" cy="46.93" r="0.91"/></g></g></g></svg>