<svg id="Layer_1" xmlns="http://www.w3.org/2000/svg" viewBox="0 0 220 185.5"><style>.st25{fill:#f4af9f}.st27{opacity:.72}.st37{fill:#2d3445}.st38{fill:#f2907e}.st42{fill:#ef7c7e}.st43{fill:#8ab5e1}.st53{fill:#ed6e6f}.st55{fill:#b4b4b4}.st56{fill:#676767}</style><path d="M184,84.6c-15.7,33.8-47.8,56.8-81,60c-47.7,4.7-92-51.2-74-104.5C35.1,22,49.6,6.6,66.3,1.7 C76.7-1.5,87.9,0.1,98,4.2c9.3,3.9,17.9,15.4,27.8,15.5c9.9,0.2,19.2-7.7,29.1-8.6c11.6-1.1,24.7,2.3,31.6,14 C196.6,42.4,191.9,67.4,184,84.6z" fill="#e2e5f4"/><linearGradient id="SVGID_2_" gradientUnits="userSpaceOnUse" x1="24.883" y1="65.898" x2="125.059" y2="65.898"><stop offset="0" stop-color="#808181"/><stop offset="1" stop-color="#fffdfe"/></linearGradient><path d="M121.6,29.5c1.7-3.1,2.9-6.4,3.5-9.8C115.5,19,107.1,8,98,4.2c-10-4.2-21.3-5.7-31.7-2.6 C49.6,6.6,35.1,22,29,40.1c-5.2,15.4-5.2,31-1.4,45.3c2.2,4.8,4.6,10.9,6.4,16.7c6.1,11.9,14.8,22.2,25.2,29.7 c1.3-7.4,3.8-18.3,3.1-19.2c-0.2-0.2-0.4-0.3-0.7-0.3C50,100.8,37,86.4,40.1,67.4c1.4-8.7,6.5-15.6,14.3-17.6 c8.6-2.3,17.9,0.4,26.6,0.4C96.4,50.3,113,45.3,121.6,29.5z" fill="url(#SVGID_2_)"/><linearGradient id="SVGID_4_" gradientUnits="userSpaceOnUse" x1="278.3" y1="70.078" x2="134.018" y2="70.903"><stop offset="0" stop-color="#808181"/><stop offset="1" stop-color="#fceaf4"/></linearGradient><path d="M184,84.6c8-17.2,12.6-42.2,2.5-59.5c-4.6-8-12.2-12.1-20.3-13.5c0.1,5.5-0.4,12.5-0.9,15.4 c-2.3,13.6-14.9,20.3-23.6,28c-4.6,4.1-8.9,8.8-11.3,14.9c-2.5,6.4-3,13.7-1.8,20.6c1.4,7.8,8,24.6,15.7,39.4 C160.9,119.4,175.1,103.7,184,84.6z" fill="url(#SVGID_4_)"/><path d="M116.3,5.7c1.5,6.6,8.4,10.9,15,8.2c2.2-0.9,5.6-3.2,5.9-5.7c0.7-5.2-8.8-3.7-11.4-4 c-2.6-0.3-4.2-2.5-6.6-3.2c-0.9-0.3-2-0.1-2.7,0.6c-0.6,0.7-0.7,1.7-0.6,2.6C116.1,4.7,116.2,5.2,116.3,5.7z" fill="#eceef9"/><path class="st37" d="M113.9,168.6c0,0-3.7,17-5.6,17c-3.6,0-3.6-19.1-3.1-24.3c0.2-2.1,5.3-8.1,8.4-6.7 C117.2,156.3,113.9,168.6,113.9,168.6z"/><path class="st25" d="M118.8,154.3c0,0-1.8,0.5-2.6,4c-0.8,3.5-4.6,19-5.7,19c-1.1,0-2.2-15-1.1-17.5c1.1-2.5,5.2-10,5.5-9.8 C115.3,150.2,118.8,154.3,118.8,154.3z"/><path class="st38" d="M109.4,159.8c1.1-2.5,5.2-10,5.5-9.8c0.4,0.2,3.9,4.3,3.9,4.3s-1.4,0.4-2.3,2.8c-0.7-1.2-3-1.7-3-1.7 s-3.2,5.3-4.5,11.3C108.9,163.6,109,160.8,109.4,159.8z"/><g class="st27"><linearGradient id="SVGID_6_" gradientUnits="userSpaceOnUse" x1="14445.38" y1="2786.898" x2="14466.151" y2="2786.898" gradientTransform="scale(-1 1) rotate(-11.905 -5373.713 71352.191)"><stop offset="0" stop-color="#d6d7d7"/><stop offset="1" stop-color="#808181"/></linearGradient><path d="M113.9,168.6c0,0-3.7,17-5.6,17c-3.6,0-3.6-19.1-3.1-24.3c0.2-2.1,5.3-8.1,8.4-6.7 C117.2,156.3,113.9,168.6,113.9,168.6z" fill="url(#SVGID_6_)"/><linearGradient id="SVGID_8_" gradientUnits="userSpaceOnUse" x1="14445.384" y1="2780.332" x2="14466.147" y2="2780.332" gradientTransform="scale(-1 1) rotate(-11.905 -5373.713 71352.191)"><stop offset="0" stop-color="#d6d7d7"/><stop offset="1" stop-color="#808181"/></linearGradient><path d="M118.8,154.3c0,0-1.8,0.5-2.6,4c-0.8,3.5-4.6,19-5.7,19c-1.1,0-2.2-15-1.1-17.5 c1.1-2.5,5.2-10,5.5-9.8C115.3,150.2,118.8,154.3,118.8,154.3z" fill="url(#SVGID_8_)"/><linearGradient id="SVGID_9_" gradientUnits="userSpaceOnUse" x1="14445.385" y1="2775.29" x2="14466.147" y2="2775.29" gradientTransform="scale(-1 1) rotate(-11.905 -5373.713 71352.191)"><stop offset="0" stop-color="#d6d7d7"/><stop offset="1" stop-color="#808181"/></linearGradient><path d="M109.4,159.8c1.1-2.5,5.2-10,5.5-9.8c0.4,0.2,3.9,4.3,3.9,4.3s-1.4,0.4-2.3,2.8c-0.7-1.2-3-1.7-3-1.7 s-3.2,5.3-4.5,11.3C108.9,163.6,109,160.8,109.4,159.8z" fill="url(#SVGID_9_)"/></g><path class="st37" d="M120.1,156.4l-10.1-4c0,0,12-47.9,18.4-55.5c0,0-33.3,41.8-46.3,28C69,111.2,80,94,92.4,93.6 c10.9-0.3,19.8-4.1,36-13.7c11.2-6.6,24,4.7,22.6,7.5C149.6,90.4,120.1,156.4,120.1,156.4z"/><path class="st42" d="M15.6,66.7c0.4-1.8,0.8-3.6,1.3-5.4c0.2-0.9-1.1-1.2-1.3-0.4c-0.5,1.8-0.9,3.6-1.3,5.4 C14.1,67.2,15.4,67.5,15.6,66.7L15.6,66.7z"/><path class="st42" d="M26.2,120.4c-8.7-13.6-13.3-28.6-12-44.8c0.1-0.9-1.3-0.9-1.4,0c-1.3,16.5,3.3,31.7,12.1,45.5 C25.5,121.9,26.7,121.2,26.2,120.4L26.2,120.4z"/><path class="st42" d="M29.9,125.6c-0.4-0.6-0.9-1.1-1.3-1.7c-0.5-0.7-1.7,0-1.2,0.7c0.5,0.7,1,1.3,1.5,2 C29.5,127.3,30.5,126.3,29.9,125.6L29.9,125.6z"/><path class="st43" d="M156.7,147.4c-11.8,6.4-24.3,10.3-37.6,11.9c-0.9,0.1-0.9,1.5,0,1.4c13.5-1.7,26.3-5.6,38.3-12.1 C158.2,148.2,157.5,147,156.7,147.4L156.7,147.4z"/><path class="st43" d="M182.9,124.4c-3.3,4.5-7,8.6-11.1,12.3c-0.7,0.6,0.3,1.6,1,1c4.2-3.8,8-8,11.4-12.6 C184.6,124.4,183.4,123.7,182.9,124.4L182.9,124.4z"/><path class="st43" d="M186.8,118.5c-0.6,1-1.3,2.1-1.9,3.1c-0.5,0.8,0.7,1.5,1.2,0.7c0.7-1,1.3-2,1.9-3.1 C188.5,118.4,187.3,117.7,186.8,118.5L186.8,118.5z"/><path class="st43" d="M197,62.2c0.2,0.9,0.3,1.8,0.4,2.7c0.1,0.9,1.5,0.5,1.3-0.4c-0.1-0.9-0.3-1.8-0.4-2.7 C198.2,61,196.8,61.3,197,62.2L197,62.2z"/><path class="st43" d="M137.5,57c-13.9-3.5-19.4-20.6-6.8-29.5c4.2-3,9.7-3.2,14.5-2.2c-0.3,2.4-0.7,4.8-1,7.2 c2.6-4,6.2-6.5,10.7-7.6c21.7-7.4,37.2,16.9,41.5,34.2c0.2,0.9,1.6,0.5,1.3-0.4c-5.1-20.3-20.1-39.8-43.2-35.2 c-7.7,1.6-13.1,7.8-13.1,15.5c0,4.5,5.9,8.1,9.8,5.7c6.7-4.1,6.5-10,2.1-16.2c-4.6-6.4-14.3-5.9-20.8-3.5 c-17.5,6.4-10.6,29.5,4.7,33.4C138,58.6,138.4,57.2,137.5,57L137.5,57z"/><path class="st25" d="M99.5,83.9c0,0,4.9-1.7,6.8-2.5c1.9-0.7,10.5,2.2,10.5,2.2l-16.7,5.2L99.5,83.9z"/><path class="st38" d="M101.3,83.3c-1,0.3-1.7,0.6-1.7,0.6c0,0,0,0,0,0l0.6,4.9l16.7-5.2c0,0-1.3-0.4-3-0.9 C108,84.7,103.3,83.9,101.3,83.3z"/><g class="st27"><linearGradient id="SVGID_10_" gradientUnits="userSpaceOnUse" x1="99.543" y1="85.071" x2="116.848" y2="85.071"><stop offset="0" stop-color="#808181"/><stop offset="1" stop-color="#d6d7d7"/></linearGradient><path d="M99.5,83.9c0,0,4.9-1.7,6.8-2.5c1.9-0.7,10.5,2.2,10.5,2.2l-16.7,5.2L99.5,83.9z" fill="url(#SVGID_10_)"/><linearGradient id="SVGID_11_" gradientUnits="userSpaceOnUse" x1="99.545" y1="85.748" x2="116.848" y2="85.748"><stop offset="0" stop-color="#808181"/><stop offset="1" stop-color="#d6d7d7"/></linearGradient><path d="M101.3,83.3c-1,0.3-1.7,0.6-1.7,0.6c0,0,0,0,0,0l0.6,4.9l16.7-5.2c0,0-1.3-0.4-3-0.9 C108,84.7,103.3,83.9,101.3,83.3z" fill="url(#SVGID_11_)"/></g><path d="M171.8,60.5c0.8-1.3-0.4-4.8-2-4.8h-34.7c-1.5,0-3.5,1.1-4.3,2.4l-15.7,25.3c-0.8,1.3-0.2,2.4,1.3,2.4h34.7 c1.5,0,3.5-1.1,4.3-2.4L171.8,60.5z" fill="#fad8de"/><path d="M171.4,61.2c1.3-2.2,0.4-4-2.2-4h-31c-2.6,0-5.8,1.8-7.1,4l-13.8,22.2c-1.3,2.2-0.4,4,2.2,4h31 c2.6,0,5.8-1.8,7.1-4L171.4,61.2z" fill="#fffbfd"/><path class="st37" d="M180.7,155.3c0,0,13.3,11.2,12.4,12.8c-1.7,3.2-18.6-5.8-22.9-8.6c-1.8-1.2-4.7-8.5-2-10.5 C171.4,146.7,180.7,155.3,180.7,155.3z"/><path class="st25" d="M170.4,144.3c0,0-0.4,1.8,2.3,4.2c2.7,2.4,14.7,13,14.2,13.9c-0.5,0.9-14.3-5.1-16-7.2 c-1.8-2.1-6.5-9.2-6.1-9.4C165.1,145.6,170.4,144.3,170.4,144.3z"/><path class="st38" d="M170.9,155.2c-1.8-2.1-6.5-9.2-6.1-9.4c0.3-0.2,5.7-1.4,5.7-1.4s-0.3,1.4,1.4,3.3c-1.4,0.1-2.9,1.9-2.9,1.9 s3.2,5.2,7.9,9.3C174,157.4,171.6,156,170.9,155.2z"/><g class="st27"><linearGradient id="SVGID_12_" gradientUnits="userSpaceOnUse" x1="10036.664" y1="-3847.966" x2="10057.432" y2="-3847.966" gradientTransform="scale(-1 1) rotate(50.291 667.816 -12744.223)"><stop offset="0" stop-color="#d6d7d7"/><stop offset="1" stop-color="#808181"/></linearGradient><path d="M180.7,155.3c0,0,13.3,11.2,12.4,12.8c-1.7,3.2-18.6-5.8-22.9-8.6c-1.8-1.2-4.7-8.5-2-10.5 C171.4,146.7,180.7,155.3,180.7,155.3z" fill="url(#SVGID_12_)"/><linearGradient id="SVGID_13_" gradientUnits="userSpaceOnUse" x1="10036.662" y1="-3854.532" x2="10057.43" y2="-3854.532" gradientTransform="scale(-1 1) rotate(50.291 667.816 -12744.223)"><stop offset="0" stop-color="#d6d7d7"/><stop offset="1" stop-color="#808181"/></linearGradient><path d="M170.4,144.3c0,0-0.4,1.8,2.3,4.2c2.7,2.4,14.7,13,14.2,13.9c-0.5,0.9-14.3-5.1-16-7.2 c-1.8-2.1-6.5-9.2-6.1-9.4C165.1,145.6,170.4,144.3,170.4,144.3z" fill="url(#SVGID_13_)"/><linearGradient id="SVGID_14_" gradientUnits="userSpaceOnUse" x1="10036.661" y1="-3859.574" x2="10057.43" y2="-3859.574" gradientTransform="scale(-1 1) rotate(50.291 667.816 -12744.223)"><stop offset="0" stop-color="#d6d7d7"/><stop offset="1" stop-color="#808181"/></linearGradient><path d="M170.9,155.2c-1.8-2.1-6.5-9.2-6.1-9.4c0.3-0.2,5.7-1.4,5.7-1.4s-0.3,1.4,1.4,3.3c-1.4,0.1-2.9,1.9-2.9,1.9 s3.2,5.2,7.9,9.3C174,157.4,171.6,156,170.9,155.2z" fill="url(#SVGID_14_)"/></g><path d="M59.9,28c0,0.2,0,0.4,0,0.7c0.1,1.8,0.4,3.6,0.7,5.3c0.1,0.3,0.1,0.6,0.2,0.9c0.1,0.9,0.4,1.8,0.3,2.7 c-0.2,2.3-1.6,3.4-2.7,4.5c0,0,0,0,0,0c-0.3,0.3-0.7,0.7-1.1,1c-1.9,1.7-3.8,3.3-5.7,5c0,0,0,0,0,0c-6,5.5-11.2,11.8-14.1,19.5 c0,0,0,0.1,0,0.1c-0.2,0.4-0.3,0.9-0.5,1.3c0,0.1,0,0.1-0.1,0.2c-0.1,0.4-0.2,0.8-0.4,1.2c-0.1,0.2-0.1,0.5-0.2,0.7 c0,0.1-0.1,0.3-0.1,0.4c-0.8,3-1.2,6.3-1.3,9.9c0,1.3,0,2.5,0.1,3.7c0.1,1.7,0.3,3.4,0.6,5.1c0.6,3.5,1.7,6.9,3.1,10.3 c1.2,3,2.8,5.5,4.7,8.1c3.2,4.3,7,8.3,11,11.8c2.4,2,4.3,3.5,7,5.4c0.7,0.5,2,1.3,2.7,1.7c3.1,1.9,6.3,3.6,9.6,5 c0.8,0.3,1.3,0.5,1.3,0.5l14.1-40.9l-0.3-39.5c0,0,19.4-7.2,19.7-25.5c0.1-4.2-0.5-7.2-1.5-9.2l0,0c-3.1-6.4-10.2-4.3-14.7-3 c-0.1,0-0.2,0-0.3,0.1c0,0-0.1,0-0.1,0c-0.1,0-0.3,0.1-0.4,0.1c0,0-0.1,0-0.1,0c-0.1,0-0.3,0.1-0.4,0.1c-5.7,1.5-17.2-7.6-25.7,0.6 c-0.3,0.3-0.5,0.5-0.8,0.8C60.7,20.6,59.8,24.4,59.9,28z" fill="#fff"/><path class="st42" d="M93.4,55.8C90.5,53.1,79,52.1,79,52.1s-12-0.8-14.6,2.2c-2.2,2.4-4.7,8.6-6.2,17.2c-1.1,6.7-3,22.2,0.9,25.9 c1.4,1.4,7.3,0.7,7.3,0.7s-0.2,4.1-3.6,14.6c-0.2,0.5,27.6-10.8,27.6-10.8c0.6-3.9,2.3-7.7,4.5-11.1c3.3-0.8,5.5-1.3,5.5-1.3 l-0.5-6.3l-1.2,0.3c0,0,2.8-4.7,3.4-6.4c0.7-2.1-1.8-7-3.8-11.4C96.2,61.3,95.8,58.1,93.4,55.8z"/><path class="st25" d="M76.7,52c0.1-0.2,4.2-2.8,5.4-6.3c0.6-1.8,0.5-4,0.3-5.4c0,0,0-0.1-0.1-0.1c-1.8-1.5-3.7-4.5-2.8-5.9 c0.9-1.2,3.4,0.2,4.1,0.6c1.9-1.8,4.7-4.2,6.4-5.2c4.3-2.5,9.8-3.9,9.8-3.9s3.6,18.2-2.8,23.9c0,0-2.4,0.1-5.6-1.2 c-1.6,3.4-4,9.2-4.3,9.9c-0.1,0.3-1.9,0.2-3.4,0C80.1,57.8,76.6,52.2,76.7,52z"/><path class="st38" d="M84.6,58.5c-0.2,0-0.4,0-0.6-0.1c-3.9-0.6-7.4-6.2-7.3-6.4c0.1-0.2,4.2-2.8,5.4-6.3c0.6-1.8,0.5-4,0.3-5.4 c0,0,0-0.1-0.1-0.1c-1.8-1.5-3.7-4.5-2.8-5.9c0.9-1.2,3.4,0.2,4.1,0.6c1.9-1.8,4.7-4.2,6.4-5.2c4.3-2.5,9.8-3.9,9.8-3.9 s0.1,0.4,0.2,1C98,27.8,88.4,32,85.9,36c-2.8,4.4,7.2,12.9,12.1,12.8c-0.3,0.3-0.5,0.6-0.9,0.9c0,0-2.4,0.1-5.6-1.2 c-0.1,0.2-0.2,0.5-0.4,0.8c-2-0.6-4-1.3-4.8-2.3C86.4,47,78.2,55.2,84.6,58.5z"/><g class="st27"><linearGradient id="SVGID_15_" gradientUnits="userSpaceOnUse" x1="6.367" y1="373.627" x2="29.953" y2="373.627" gradientTransform="rotate(2.563 7553.248 1804.945)"><stop offset="0" stop-color="#808181"/><stop offset="1" stop-color="#d6d7d7"/></linearGradient><path d="M76.7,52c0.1-0.2,4.2-2.8,5.4-6.3c0.6-1.8,0.5-4,0.3-5.4c0,0,0-0.1-0.1-0.1c-1.8-1.5-3.7-4.5-2.8-5.9 c0.9-1.2,3.4,0.2,4.1,0.6c1.9-1.8,4.7-4.2,6.4-5.2c4.3-2.5,9.8-3.9,9.8-3.9s3.6,18.2-2.8,23.9c0,0-2.4,0.1-5.6-1.2 c-1.6,3.4-4,9.2-4.3,9.9c-0.1,0.3-1.9,0.2-3.4,0C80.1,57.8,76.6,52.2,76.7,52z" fill="url(#SVGID_15_)"/><linearGradient id="SVGID_16_" gradientUnits="userSpaceOnUse" x1="6.367" y1="373.6" x2="29.953" y2="373.6" gradientTransform="rotate(2.563 7553.248 1804.945)"><stop offset="0" stop-color="#808181"/><stop offset="1" stop-color="#d6d7d7"/></linearGradient><path d="M84.6,58.5c-0.2,0-0.4,0-0.6-0.1c-3.9-0.6-7.4-6.2-7.3-6.4c0.1-0.2,4.2-2.8,5.4-6.3c0.6-1.8,0.5-4,0.3-5.4 c0,0,0-0.1-0.1-0.1c-1.8-1.5-3.7-4.5-2.8-5.9c0.9-1.2,3.4,0.2,4.1,0.6c1.9-1.8,4.7-4.2,6.4-5.2c4.3-2.5,9.8-3.9,9.8-3.9 s0.1,0.4,0.2,1C98,27.8,88.4,32,85.9,36c-2.8,4.4,7.2,12.9,12.1,12.8c-0.3,0.3-0.5,0.6-0.9,0.9c0,0-2.4,0.1-5.6-1.2 c-0.1,0.2-0.2,0.5-0.4,0.8c-2-0.6-4-1.3-4.8-2.3C86.4,47,78.2,55.2,84.6,58.5z" fill="url(#SVGID_16_)"/></g><path class="st53" d="M100.1 85.7L69.5 87.8 72.2 68.5 71.1 85.8 99.9 83.1z"/><path class="st53" d="M89.4,94.7c0.2-0.1,2.1-1.8,2.1-1.8c-6.9,1.9-12.4,3-16.5,3.9c-2.1,0.4-8.5,1.3-8.5,1.3s-0.2,4.1-3.6,14.6 l3.8-1.5C74.9,105.3,89.2,94.8,89.4,94.7z"/><path class="st37" d="M173.3,145.4l-9.3,5.5c0,0-30.4-38.9-32.4-48.6c0,0-29,29.8-47.9,31.6c-18.9,1.8-25.6-17.5-18.3-27.5 c6.4-8.8,39.2-19.5,51.3-24.2c12.1-4.7,19.1-5.7,21.5-3.7C140.7,81,173.3,145.4,173.3,145.4z"/><linearGradient id="SVGID_17_" gradientUnits="userSpaceOnUse" x1="62.447" y1="114.263" x2="173.326" y2="114.263"><stop offset="0" stop-color="#4b4a4b"/><stop offset="1" stop-color="#fff"/></linearGradient><path d="M173.3,145.4l-9.3,5.5c0,0-30.4-38.9-32.4-48.6c0,0-29,29.8-47.9,31.6c-18.9,1.8-25.6-17.5-18.3-27.5 c6.4-8.8,39.2-19.5,51.3-24.2c12.1-4.7,19.1-5.7,21.5-3.7C140.7,81,173.3,145.4,173.3,145.4z" fill="url(#SVGID_17_)"/><path class="st42" d="M16.7,58.6l8.4-9.9c0,0-7.6-3.4-7.6-2.9C17.5,46.3,16.7,58.6,16.7,58.6z"/><path class="st55" d="M16.7,58.6l8.4-9.9c0,0-7.6-3.4-7.6-2.9C17.5,46.3,16.7,58.6,16.7,58.6z"/><path class="st42" d="M0 42.1L13.2 46.1 39.3 19.6z"/><path class="st42" d="M13.2,46.1c0,0.7,3.5,12.5,3.5,12.5l2-10.8l20.5-28.2L13.2,46.1z"/><path class="st56" d="M13.2,46.1c0,0.7,3.5,12.5,3.5,12.5l2-10.8l20.5-28.2L13.2,46.1z"/><path class="st42" d="M39.3 19.6L18.8 47.8 33.7 54.6z"/><linearGradient id="SVGID_18_" gradientUnits="userSpaceOnUse" x1="38.832" y1="22.529" x2="8.213" y2="65.772"><stop offset="0" stop-color="#9a9999"/><stop offset="1" stop-color="#676767"/></linearGradient><path d="M16.7,58.6l8.4-9.9c0,0-7.6-3.4-7.6-2.9C17.5,46.3,16.7,58.6,16.7,58.6z" fill="url(#SVGID_18_)"/><linearGradient id="SVGID_19_" gradientUnits="userSpaceOnUse" x1="38.832" y1="22.529" x2="8.213" y2="65.772"><stop offset="0" stop-color="#9a9999"/><stop offset="1" stop-color="#676767"/></linearGradient><path d="M16.7,58.6l8.4-9.9c0,0-7.6-3.4-7.6-2.9C17.5,46.3,16.7,58.6,16.7,58.6z" fill="url(#SVGID_19_)"/><linearGradient id="SVGID_20_" gradientUnits="userSpaceOnUse" x1="38.832" y1="22.529" x2="8.213" y2="65.772"><stop offset="0" stop-color="#9a9999"/><stop offset="1" stop-color="#676767"/></linearGradient><path d="M16.7,58.6l8.4-9.9c0,0-7.6-3.4-7.6-2.9C17.5,46.3,16.7,58.6,16.7,58.6z" fill="url(#SVGID_20_)"/><linearGradient id="SVGID_21_" gradientUnits="userSpaceOnUse" x1="29.965" y1="16.25" x2="-.654" y2="59.493"><stop offset="0" stop-color="#9a9999"/><stop offset="1" stop-color="#676767"/></linearGradient><path fill="url(#SVGID_21_)" d="M0 42.1L13.2 46.1 39.3 19.6z"/><linearGradient id="SVGID_22_" gradientUnits="userSpaceOnUse" x1="29.965" y1="16.25" x2="-.654" y2="59.493"><stop offset="0" stop-color="#9a9999"/><stop offset="1" stop-color="#676767"/></linearGradient><path fill="url(#SVGID_22_)" d="M0 42.1L13.2 46.1 39.3 19.6z"/><linearGradient id="SVGID_23_" gradientUnits="userSpaceOnUse" x1="37.014" y1="21.242" x2="6.395" y2="64.485"><stop offset="0" stop-color="#9a9999"/><stop offset="1" stop-color="#676767"/></linearGradient><path d="M13.2,46.1c0,0.7,3.5,12.5,3.5,12.5l2-10.8l20.5-28.2L13.2,46.1z" fill="url(#SVGID_23_)"/><linearGradient id="SVGID_24_" gradientUnits="userSpaceOnUse" x1="37.014" y1="21.242" x2="6.395" y2="64.485"><stop offset="0" stop-color="#9a9999"/><stop offset="1" stop-color="#676767"/></linearGradient><path d="M13.2,46.1c0,0.7,3.5,12.5,3.5,12.5l2-10.8l20.5-28.2L13.2,46.1z" fill="url(#SVGID_24_)"/><linearGradient id="SVGID_25_" gradientUnits="userSpaceOnUse" x1="37.014" y1="21.242" x2="6.395" y2="64.485"><stop offset="0" stop-color="#9a9999"/><stop offset="1" stop-color="#676767"/></linearGradient><path d="M13.2,46.1c0,0.7,3.5,12.5,3.5,12.5l2-10.8l20.5-28.2L13.2,46.1z" fill="url(#SVGID_25_)"/><linearGradient id="SVGID_26_" gradientUnits="userSpaceOnUse" x1="43.944" y1="26.148" x2="13.325" y2="69.391"><stop offset="0" stop-color="#9a9999"/><stop offset="1" stop-color="#676767"/></linearGradient><path fill="url(#SVGID_26_)" d="M39.3 19.6L18.8 47.8 33.7 54.6z"/><linearGradient id="SVGID_27_" gradientUnits="userSpaceOnUse" x1="43.944" y1="26.148" x2="13.325" y2="69.391"><stop offset="0" stop-color="#9a9999"/><stop offset="1" stop-color="#676767"/></linearGradient><path fill="url(#SVGID_27_)" d="M39.3 19.6L18.8 47.8 33.7 54.6z"/><path class="st42" d="M199,72.4l-5,12c0,0,8.3,0.9,8.2,0.4C202,84.4,199,72.4,199,72.4z"/><path class="st55" d="M199,72.4l-5,12c0,0,8.3,0.9,8.2,0.4C202,84.4,199,72.4,199,72.4z"/><path class="st42" d="M220 83L206.2 83.3 189.5 116.5z"/><path class="st42" d="M206.2,83.3c-0.2-0.7-7.1-10.8-7.1-10.8l1.4,11l-10.9,33.1L206.2,83.3z"/><path class="st56" d="M206.2,83.3c-0.2-0.7-7.1-10.8-7.1-10.8l1.4,11l-10.9,33.1L206.2,83.3z"/><path class="st42" d="M189.5 116.5L200.4 83.4 184.1 81.4z"/><path class="st43" d="M199,72.4l-5,12c0,0,8.3,0.9,8.2,0.4C202,84.4,199,72.4,199,72.4z"/><path class="st43" d="M199,72.4l-5,12c0,0,8.3,0.9,8.2,0.4C202,84.4,199,72.4,199,72.4z"/><path class="st43" d="M199,72.4l-5,12c0,0,8.3,0.9,8.2,0.4C202,84.4,199,72.4,199,72.4z"/><path class="st43" d="M220 83L206.2 83.3 189.5 116.5z"/><path class="st43" d="M220 83L206.2 83.3 189.5 116.5z"/><path class="st43" d="M206.2,83.3c-0.2-0.7-7.1-10.8-7.1-10.8l1.4,11l-10.9,33.1L206.2,83.3z"/><path class="st43" d="M206.2,83.3c-0.2-0.7-7.1-10.8-7.1-10.8l1.4,11l-10.9,33.1L206.2,83.3z"/><path class="st43" d="M206.2,83.3c-0.2-0.7-7.1-10.8-7.1-10.8l1.4,11l-10.9,33.1L206.2,83.3z"/><path class="st43" d="M189.5 116.5L200.4 83.4 184.1 81.4z"/><path class="st43" d="M189.5 116.5L200.4 83.4 184.1 81.4z"/><linearGradient id="SVGID_28_" gradientUnits="userSpaceOnUse" x1="200.593" y1="76.694" x2="188.815" y2="114.506"><stop offset="0" stop-color="#9a9999"/><stop offset="1" stop-color="#676767"/></linearGradient><path d="M199,72.4l-5,12c0,0,8.3,0.9,8.2,0.4C202,84.4,199,72.4,199,72.4z" fill="url(#SVGID_28_)"/><linearGradient id="SVGID_29_" gradientUnits="userSpaceOnUse" x1="200.593" y1="76.694" x2="188.815" y2="114.506"><stop offset="0" stop-color="#9a9999"/><stop offset="1" stop-color="#676767"/></linearGradient><path d="M199,72.4l-5,12c0,0,8.3,0.9,8.2,0.4C202,84.4,199,72.4,199,72.4z" fill="url(#SVGID_29_)"/><linearGradient id="SVGID_30_" gradientUnits="userSpaceOnUse" x1="200.593" y1="76.694" x2="188.815" y2="114.506"><stop offset="0" stop-color="#9a9999"/><stop offset="1" stop-color="#676767"/></linearGradient><path d="M199,72.4l-5,12c0,0,8.3,0.9,8.2,0.4C202,84.4,199,72.4,199,72.4z" fill="url(#SVGID_30_)"/><linearGradient id="SVGID_31_" gradientUnits="userSpaceOnUse" x1="210.938" y1="79.916" x2="199.16" y2="117.729"><stop offset="0" stop-color="#9a9999"/><stop offset="1" stop-color="#676767"/></linearGradient><path fill="url(#SVGID_31_)" d="M220 83L206.2 83.3 189.5 116.5z"/><linearGradient id="SVGID_32_" gradientUnits="userSpaceOnUse" x1="210.938" y1="79.916" x2="199.16" y2="117.729"><stop offset="0" stop-color="#9a9999"/><stop offset="1" stop-color="#676767"/></linearGradient><path fill="url(#SVGID_32_)" d="M220 83L206.2 83.3 189.5 116.5z"/><linearGradient id="SVGID_33_" gradientUnits="userSpaceOnUse" x1="202.739" y1="77.362" x2="190.961" y2="115.175"><stop offset="0" stop-color="#9a9999"/><stop offset="1" stop-color="#676767"/></linearGradient><path d="M206.2,83.3c-0.2-0.7-7.1-10.8-7.1-10.8l1.4,11l-10.9,33.1L206.2,83.3z" fill="url(#SVGID_33_)"/><linearGradient id="SVGID_34_" gradientUnits="userSpaceOnUse" x1="202.739" y1="77.362" x2="190.961" y2="115.175"><stop offset="0" stop-color="#9a9999"/><stop offset="1" stop-color="#676767"/></linearGradient><path d="M206.2,83.3c-0.2-0.7-7.1-10.8-7.1-10.8l1.4,11l-10.9,33.1L206.2,83.3z" fill="url(#SVGID_34_)"/><linearGradient id="SVGID_35_" gradientUnits="userSpaceOnUse" x1="202.739" y1="77.362" x2="190.961" y2="115.175"><stop offset="0" stop-color="#9a9999"/><stop offset="1" stop-color="#676767"/></linearGradient><path d="M206.2,83.3c-0.2-0.7-7.1-10.8-7.1-10.8l1.4,11l-10.9,33.1L206.2,83.3z" fill="url(#SVGID_35_)"/><linearGradient id="SVGID_36_" gradientUnits="userSpaceOnUse" x1="194.614" y1="74.832" x2="182.837" y2="112.645"><stop offset="0" stop-color="#9a9999"/><stop offset="1" stop-color="#676767"/></linearGradient><path fill="url(#SVGID_36_)" d="M189.5 116.5L200.4 83.4 184.1 81.4z"/><linearGradient id="SVGID_37_" gradientUnits="userSpaceOnUse" x1="194.614" y1="74.832" x2="182.837" y2="112.645"><stop offset="0" stop-color="#9a9999"/><stop offset="1" stop-color="#676767"/></linearGradient><path fill="url(#SVGID_37_)" d="M189.5 116.5L200.4 83.4 184.1 81.4z"/><path class="st43" d="M31.1,131.6c0.2,2.2,1.6,4.6,2.6,6.4c2,3.8,5.2,7.3,7.9,10.4c3.1,3.6,7.4,7.2,11.4,9.6 c1.8,1.1,3.8,2.2,5.9,3c9.6,4.2,20.4,4.8,30.5,3.6c3.1-0.4,6.2-1.3,9-2.5c1.3-0.5,2.6-1.3,3-2.6c0.3-1.1-0.2-2.3-1.1-3 c-2.4-2.2-6.6-2.8-9.8-3.3c-3.7-0.5-7.4-0.6-11.1-1.1c-9.6-1.2-19.2-5-26.7-10.8c-4.8-3.7-9.3-7.8-13.9-11.7 c-1.6-1.3-4.2-3.6-6.2-1.8C31.3,129.1,31,130.3,31.1,131.6z"/></svg>